<?xml version="1.0" encoding="UTF-8" standalone="no"?>
<!DOCTYPE svg PUBLIC "-//W3C//DTD SVG 1.1//EN"
 "http://www.w3.org/Graphics/SVG/1.1/DTD/svg11.dtd">
<!-- Generated by graphviz version 2.38.0 (20140413.2041)
 -->
<!-- Title: Control&#45;flow graph for function &#39;out(a1, a2)&#39;. Pages: 1 -->
<svg width="431pt" height="473pt"
 viewBox="0.00 0.00 430.50 473.00" xmlns="http://www.w3.org/2000/svg" xmlns:xlink="http://www.w3.org/1999/xlink">
<g id="graph0" class="graph" transform="scale(1 1) rotate(0) translate(4 469)">
<title>Control&#45;flow graph for function &#39;out(a1, a2)&#39;.</title>
<polygon fill="white" stroke="none" points="-4,4 -4,-469 426.5,-469 426.5,4 -4,4"/>
<text text-anchor="middle" x="211.25" y="-7.8" font-family="Times,serif" font-size="14.00">Control&#45;flow graph for function &#39;out(a1, a2)&#39;.</text>
<!-- Node0x1ba4dc0 -->
<g id="node1" class="node"><title>Node0x1ba4dc0</title>
<polygon fill="none" stroke="black" points="260,-411.5 260,-464.5 319,-464.5 319,-411.5 260,-411.5"/>
<text text-anchor="start" x="268" y="-449.3" font-family="Times,serif" font-size="14.00">entry:</text>
<text text-anchor="start" x="268" y="-434.3" font-family="Times,serif" font-size="14.00"> a1</text>
<text text-anchor="start" x="268" y="-419.3" font-family="Times,serif" font-size="14.00"> a2</text>
</g>
<!-- Node0x1bd9330 -->
<g id="node2" class="node"><title>Node0x1bd9330</title>
<polygon fill="none" stroke="black" points="176.5,-337.5 176.5,-373.5 402.5,-373.5 402.5,-337.5 176.5,-337.5"/>
<text text-anchor="start" x="184.5" y="-351.8" font-family="Times,serif" font-size="14.00">result = partial_write(a1, a2)</text>
</g>
<!-- Node0x1ba4dc0&#45;&gt;Node0x1bd9330 -->
<g id="edge1" class="edge"><title>Node0x1ba4dc0&#45;&gt;Node0x1bd9330</title>
<path fill="none" stroke="black" d="M289.5,-411.086C289.5,-402.46 289.5,-392.822 289.5,-384.075"/>
<polygon fill="black" stroke="black" points="293,-383.973 289.5,-373.974 286,-383.974 293,-383.973"/>
</g>
<!-- Node0x1b8d6a0 -->
<g id="node3" class="node"><title>Node0x1b8d6a0</title>
<polygon fill="none" stroke="black" points="223.5,-263.5 223.5,-299.5 355.5,-299.5 355.5,-263.5 223.5,-263.5"/>
<text text-anchor="start" x="231.5" y="-277.8" font-family="Times,serif" font-size="14.00">if (result != a2):</text>
</g>
<!-- Node0x1bd9330&#45;&gt;Node0x1b8d6a0 -->
<g id="edge2" class="edge"><title>Node0x1bd9330&#45;&gt;Node0x1b8d6a0</title>
<path fill="none" stroke="black" d="M289.5,-337.437C289.5,-329.307 289.5,-319.376 289.5,-310.205"/>
<polygon fill="black" stroke="black" points="293,-309.941 289.5,-299.941 286,-309.941 293,-309.941"/>
</g>
<!-- Node0x1af0df0 -->
<g id="node4" class="node"><title>Node0x1af0df0</title>
<polygon fill="none" stroke="black" points="0,-173.5 0,-211.5 305,-211.5 305,-173.5 0,-173.5"/>
<text text-anchor="start" x="8" y="-196.3" font-family="Times,serif" font-size="14.00">0x8048876:</text>
<text text-anchor="start" x="8" y="-181.3" font-family="Times,serif" font-size="14.00"> errx(120, &quot;Couldn&#39;t write all the data!&quot;)</text>
</g>
<!-- Node0x1b8d6a0&#45;&gt;Node0x1af0df0 -->
<g id="edge3" class="edge"><title>Node0x1b8d6a0&#45;&gt;Node0x1af0df0</title>
<path fill="none" stroke="black" d="M262.433,-263.312C241.551,-250.051 212.44,-231.564 189.42,-216.945"/>
<polygon fill="black" stroke="black" points="191.243,-213.957 180.925,-211.551 187.491,-219.867 191.243,-213.957"/>
<text text-anchor="middle" x="277" y="-233.8" font-family="Times,serif" font-size="14.00">result != a2</text>
</g>
<!-- Node0x1b84180 -->
<g id="node5" class="node"><title>Node0x1b84180</title>
<polygon fill="none" stroke="black" points="231,-97.5 231,-135.5 344,-135.5 344,-97.5 231,-97.5"/>
<text text-anchor="start" x="239" y="-120.3" font-family="Times,serif" font-size="14.00">0x804888a:</text>
<text text-anchor="start" x="239" y="-105.3" font-family="Times,serif" font-size="14.00"> return result</text>
</g>
<!-- Node0x1b8d6a0&#45;&gt;Node0x1b84180 -->
<g id="edge4" class="edge"><title>Node0x1b8d6a0&#45;&gt;Node0x1b84180</title>
<path fill="none" stroke="black" d="M311.568,-263.438C316.799,-258.153 321.676,-251.887 324.5,-245 338.346,-211.235 320.911,-170.465 305.593,-144.27"/>
<polygon fill="black" stroke="black" points="308.522,-142.352 300.318,-135.648 302.551,-146.005 308.522,-142.352"/>
<text text-anchor="middle" x="376" y="-188.8" font-family="Times,serif" font-size="14.00">result == a2</text>
</g>
<!-- Node0x1af0df0&#45;&gt;Node0x1b84180 -->
<g id="edge5" class="edge"><title>Node0x1af0df0&#45;&gt;Node0x1b84180</title>
<path fill="none" stroke="black" d="M185.525,-173.398C203.585,-163.498 226.145,-151.132 245.451,-140.549"/>
<polygon fill="black" stroke="black" points="247.262,-143.548 254.348,-135.672 243.897,-137.41 247.262,-143.548"/>
</g>
<!-- Node0x1ad2b70 -->
<g id="node6" class="node"><title>Node0x1ad2b70</title>
<polygon fill="none" stroke="black" points="260.5,-23.5 260.5,-59.5 314.5,-59.5 314.5,-23.5 260.5,-23.5"/>
<text text-anchor="start" x="268.5" y="-37.8" font-family="Times,serif" font-size="14.00">exit:</text>
</g>
<!-- Node0x1b84180&#45;&gt;Node0x1ad2b70 -->
<g id="edge6" class="edge"><title>Node0x1b84180&#45;&gt;Node0x1ad2b70</title>
<path fill="none" stroke="black" d="M287.5,-97.4551C287.5,-89.2008 287.5,-79.2377 287.5,-70.0742"/>
<polygon fill="black" stroke="black" points="291,-69.8347 287.5,-59.8347 284,-69.8347 291,-69.8347"/>
</g>
</g>
</svg>
