<?xml version="1.0" encoding="UTF-8" standalone="no"?>
<!DOCTYPE svg PUBLIC "-//W3C//DTD SVG 1.1//EN"
 "http://www.w3.org/Graphics/SVG/1.1/DTD/svg11.dtd">
<!-- Generated by graphviz version 2.38.0 (20140413.2041)
 -->
<!-- Title: Control&#45;flow graph for function &#39;string_out(*str)&#39;. Pages: 1 -->
<svg width="415pt" height="218pt"
 viewBox="0.00 0.00 415.00 218.00" xmlns="http://www.w3.org/2000/svg" xmlns:xlink="http://www.w3.org/1999/xlink">
<g id="graph0" class="graph" transform="scale(1 1) rotate(0) translate(4 214)">
<title>Control&#45;flow graph for function &#39;string_out(*str)&#39;.</title>
<polygon fill="white" stroke="none" points="-4,4 -4,-214 411,-214 411,4 -4,4"/>
<text text-anchor="middle" x="203.5" y="-7.8" font-family="Times,serif" font-size="14.00">Control&#45;flow graph for function &#39;string_out(*str)&#39;.</text>
<!-- Node0x2039630 -->
<g id="node1" class="node"><title>Node0x2039630</title>
<polygon fill="none" stroke="black" points="174,-171.5 174,-209.5 233,-209.5 233,-171.5 174,-171.5"/>
<text text-anchor="start" x="182" y="-194.3" font-family="Times,serif" font-size="14.00">entry:</text>
<text text-anchor="start" x="182" y="-179.3" font-family="Times,serif" font-size="14.00"> str</text>
</g>
<!-- Node0x1a6ba10 -->
<g id="node2" class="node"><title>Node0x1a6ba10</title>
<polygon fill="none" stroke="black" points="0,-96.5 0,-134.5 407,-134.5 407,-96.5 0,-96.5"/>
<text text-anchor="start" x="8" y="-119.3" font-family="Times,serif" font-size="14.00">0x804888c:</text>
<text text-anchor="start" x="8" y="-104.3" font-family="Times,serif" font-size="14.00"> return out(PtrToIntCastExpr&lt;int32&gt;(str), strlen(str))</text>
</g>
<!-- Node0x2039630&#45;&gt;Node0x1a6ba10 -->
<g id="edge1" class="edge"><title>Node0x2039630&#45;&gt;Node0x1a6ba10</title>
<path fill="none" stroke="black" d="M203.5,-171.455C203.5,-163.383 203.5,-153.676 203.5,-144.682"/>
<polygon fill="black" stroke="black" points="207,-144.59 203.5,-134.59 200,-144.59 207,-144.59"/>
</g>
<!-- Node0x20957d0 -->
<g id="node3" class="node"><title>Node0x20957d0</title>
<polygon fill="none" stroke="black" points="176.5,-23.5 176.5,-59.5 230.5,-59.5 230.5,-23.5 176.5,-23.5"/>
<text text-anchor="start" x="184.5" y="-37.8" font-family="Times,serif" font-size="14.00">exit:</text>
</g>
<!-- Node0x1a6ba10&#45;&gt;Node0x20957d0 -->
<g id="edge2" class="edge"><title>Node0x1a6ba10&#45;&gt;Node0x20957d0</title>
<path fill="none" stroke="black" d="M203.5,-96.3314C203.5,-88.394 203.5,-78.9095 203.5,-70.1285"/>
<polygon fill="black" stroke="black" points="207,-69.9177 203.5,-59.9177 200,-69.9177 207,-69.9177"/>
</g>
</g>
</svg>
