<?xml version="1.0" encoding="UTF-8" standalone="no"?>
<!DOCTYPE svg PUBLIC "-//W3C//DTD SVG 1.1//EN"
 "http://www.w3.org/Graphics/SVG/1.1/DTD/svg11.dtd">
<!-- Generated by graphviz version 2.38.0 (20140413.2041)
 -->
<!-- Title: Control&#45;flow graph for function &#39;main(argc, **argv)&#39;. Pages: 1 -->
<svg width="398pt" height="263pt"
 viewBox="0.00 0.00 398.00 263.00" xmlns="http://www.w3.org/2000/svg" xmlns:xlink="http://www.w3.org/1999/xlink">
<g id="graph0" class="graph" transform="scale(1 1) rotate(0) translate(4 259)">
<title>Control&#45;flow graph for function &#39;main(argc, **argv)&#39;.</title>
<polygon fill="white" stroke="none" points="-4,4 -4,-259 394,-259 394,4 -4,4"/>
<text text-anchor="middle" x="195" y="-7.8" font-family="Times,serif" font-size="14.00">Control&#45;flow graph for function &#39;main(argc, **argv)&#39;.</text>
<!-- Node0x20bab20 -->
<g id="node1" class="node"><title>Node0x20bab20</title>
<polygon fill="none" stroke="black" points="165.5,-201.5 165.5,-254.5 224.5,-254.5 224.5,-201.5 165.5,-201.5"/>
<text text-anchor="start" x="173.5" y="-239.3" font-family="Times,serif" font-size="14.00">entry:</text>
<text text-anchor="start" x="173.5" y="-224.3" font-family="Times,serif" font-size="14.00"> argc</text>
<text text-anchor="start" x="173.5" y="-209.3" font-family="Times,serif" font-size="14.00"> argv</text>
</g>
<!-- Node0x20b5ca0 -->
<g id="node2" class="node"><title>Node0x20b5ca0</title>
<polygon fill="none" stroke="black" points="118.5,-96.5 118.5,-164.5 271.5,-164.5 271.5,-96.5 118.5,-96.5"/>
<text text-anchor="start" x="126.5" y="-149.3" font-family="Times,serif" font-size="14.00">0x8048c24:</text>
<text text-anchor="start" x="126.5" y="-134.3" font-family="Times,serif" font-size="14.00"> chdir(&quot;../append/&quot;)</text>
<text text-anchor="start" x="126.5" y="-119.3" font-family="Times,serif" font-size="14.00"> service_example()</text>
<text text-anchor="start" x="126.5" y="-104.3" font-family="Times,serif" font-size="14.00"> return 0</text>
</g>
<!-- Node0x20bab20&#45;&gt;Node0x20b5ca0 -->
<g id="edge1" class="edge"><title>Node0x20bab20&#45;&gt;Node0x20b5ca0</title>
<path fill="none" stroke="black" d="M195,-201.408C195,-193.219 195,-183.912 195,-174.822"/>
<polygon fill="black" stroke="black" points="198.5,-174.721 195,-164.721 191.5,-174.721 198.5,-174.721"/>
</g>
<!-- Node0x1b6bdc0 -->
<g id="node3" class="node"><title>Node0x1b6bdc0</title>
<polygon fill="none" stroke="black" points="168,-23.5 168,-59.5 222,-59.5 222,-23.5 168,-23.5"/>
<text text-anchor="start" x="176" y="-37.8" font-family="Times,serif" font-size="14.00">exit:</text>
</g>
<!-- Node0x20b5ca0&#45;&gt;Node0x1b6bdc0 -->
<g id="edge2" class="edge"><title>Node0x20b5ca0&#45;&gt;Node0x1b6bdc0</title>
<path fill="none" stroke="black" d="M195,-96.1123C195,-87.3522 195,-78.0128 195,-69.6246"/>
<polygon fill="black" stroke="black" points="198.5,-69.6235 195,-59.6235 191.5,-69.6235 198.5,-69.6235"/>
</g>
</g>
</svg>
