<?xml version="1.0" encoding="UTF-8" standalone="no"?>
<!DOCTYPE svg PUBLIC "-//W3C//DTD SVG 1.1//EN"
 "http://www.w3.org/Graphics/SVG/1.1/DTD/svg11.dtd">
<!-- Generated by graphviz version 2.38.0 (20140413.2041)
 -->
<!-- Title: Control&#45;flow graph for function &#39;service_example()&#39;. Pages: 1 -->
<svg width="1229pt" height="580pt"
 viewBox="0.00 0.00 1229.00 580.00" xmlns="http://www.w3.org/2000/svg" xmlns:xlink="http://www.w3.org/1999/xlink">
<g id="graph0" class="graph" transform="scale(1 1) rotate(0) translate(4 576)">
<title>Control&#45;flow graph for function &#39;service_example()&#39;.</title>
<polygon fill="white" stroke="none" points="-4,4 -4,-576 1225,-576 1225,4 -4,4"/>
<text text-anchor="middle" x="610.5" y="-7.8" font-family="Times,serif" font-size="14.00">Control&#45;flow graph for function &#39;service_example()&#39;.</text>
<!-- Node0x20b0380 -->
<g id="node1" class="node"><title>Node0x20b0380</title>
<polygon fill="none" stroke="black" points="704.5,-535.5 704.5,-571.5 763.5,-571.5 763.5,-535.5 704.5,-535.5"/>
<text text-anchor="start" x="712.5" y="-549.8" font-family="Times,serif" font-size="14.00">entry:</text>
</g>
<!-- Node0x1afe790 -->
<g id="node2" class="node"><title>Node0x1afe790</title>
<polygon fill="none" stroke="black" points="553,-384.5 553,-497.5 915,-497.5 915,-384.5 553,-384.5"/>
<text text-anchor="start" x="561" y="-482.3" font-family="Times,serif" font-size="14.00">puts(&quot;Hi! Welcome to our note storage service&quot;)</text>
<text text-anchor="start" x="561" y="-467.3" font-family="Times,serif" font-size="14.00"> puts(&quot;Want to (R)ead or (W)rite a note?&quot;)</text>
<text text-anchor="start" x="561" y="-452.3" font-family="Times,serif" font-size="14.00"> fflush(g2)</text>
<text text-anchor="start" x="561" y="-437.3" font-family="Times,serif" font-size="14.00"> str</text>
<text text-anchor="start" x="561" y="-422.3" font-family="Times,serif" font-size="14.00"> fgets(BitCastExpr&lt;ptr&gt;(&amp;(str)), 3, g1)</text>
<text text-anchor="start" x="561" y="-407.3" font-family="Times,serif" font-size="14.00"> result</text>
<text text-anchor="start" x="561" y="-392.3" font-family="Times,serif" font-size="14.00"> v1</text>
</g>
<!-- Node0x20b0380&#45;&gt;Node0x1afe790 -->
<g id="edge1" class="edge"><title>Node0x20b0380&#45;&gt;Node0x1afe790</title>
<path fill="none" stroke="black" d="M734,-535.234C734,-527.586 734,-518.056 734,-508.033"/>
<polygon fill="black" stroke="black" points="737.5,-507.897 734,-497.897 730.5,-507.897 737.5,-507.897"/>
</g>
<!-- Node0x1b4db40 -->
<g id="node3" class="node"><title>Node0x1b4db40</title>
<polygon fill="none" stroke="black" points="602.5,-278.5 602.5,-346.5 865.5,-346.5 865.5,-278.5 602.5,-278.5"/>
<text text-anchor="start" x="610.5" y="-331.3" font-family="Times,serif" font-size="14.00">switch TruncCastExpr&lt;int8&gt;(v1):</text>
<text text-anchor="start" x="610.5" y="-316.3" font-family="Times,serif" font-size="14.00"> default:</text>
<text text-anchor="start" x="610.5" y="-301.3" font-family="Times,serif" font-size="14.00"> case 82:</text>
<text text-anchor="start" x="610.5" y="-286.3" font-family="Times,serif" font-size="14.00"> case 87:</text>
</g>
<!-- Node0x1afe790&#45;&gt;Node0x1b4db40 -->
<g id="edge2" class="edge"><title>Node0x1afe790&#45;&gt;Node0x1b4db40</title>
<path fill="none" stroke="black" d="M734,-384.147C734,-374.918 734,-365.476 734,-356.622"/>
<polygon fill="black" stroke="black" points="737.5,-356.545 734,-346.545 730.5,-356.545 737.5,-356.545"/>
</g>
<!-- Node0x1b70f90 -->
<g id="node4" class="node"><title>Node0x1b70f90</title>
<polygon fill="none" stroke="black" points="0,-173.5 0,-226.5 546,-226.5 546,-173.5 0,-173.5"/>
<text text-anchor="start" x="8" y="-211.3" font-family="Times,serif" font-size="14.00">0x8048913:</text>
<text text-anchor="start" x="8" y="-196.3" font-family="Times,serif" font-size="14.00"> result = string_out(&quot;What was that??? I don&#39;t know what that means!\n&quot;)</text>
<text text-anchor="start" x="8" y="-181.3" font-family="Times,serif" font-size="14.00"> break</text>
</g>
<!-- Node0x1b4db40&#45;&gt;Node0x1b70f90 -->
<g id="edge3" class="edge"><title>Node0x1b4db40&#45;&gt;Node0x1b70f90</title>
<path fill="none" stroke="black" d="M602.378,-307.77C454.137,-302.181 230.327,-289.009 204,-260 195.558,-250.698 199.06,-241.47 207.886,-233.171"/>
<polygon fill="black" stroke="black" points="210.334,-235.696 215.98,-226.731 205.976,-230.219 210.334,-235.696"/>
<text text-anchor="middle" x="467" y="-248.8" font-family="Times,serif" font-size="14.00">(TruncCastExpr&lt;int8&gt;(v1) != 82) and (TruncCastExpr&lt;int8&gt;(v1) != 87)</text>
</g>
<!-- Node0x1aa87f0 -->
<g id="node5" class="node"><title>Node0x1aa87f0</title>
<polygon fill="none" stroke="black" points="651,-173.5 651,-226.5 817,-226.5 817,-173.5 651,-173.5"/>
<text text-anchor="start" x="659" y="-211.3" font-family="Times,serif" font-size="14.00">0x80488fd:</text>
<text text-anchor="start" x="659" y="-196.3" font-family="Times,serif" font-size="14.00"> result = read_note()</text>
<text text-anchor="start" x="659" y="-181.3" font-family="Times,serif" font-size="14.00"> break</text>
</g>
<!-- Node0x1b4db40&#45;&gt;Node0x1aa87f0 -->
<g id="edge4" class="edge"><title>Node0x1b4db40&#45;&gt;Node0x1aa87f0</title>
<path fill="none" stroke="black" d="M734,-278.346C734,-265.304 734,-250.296 734,-236.99"/>
<polygon fill="black" stroke="black" points="737.5,-236.755 734,-226.755 730.5,-236.755 737.5,-236.755"/>
<text text-anchor="middle" x="854.5" y="-248.8" font-family="Times,serif" font-size="14.00">TruncCastExpr&lt;int8&gt;(v1) == 82</text>
</g>
<!-- Node0x20be360 -->
<g id="node6" class="node"><title>Node0x20be360</title>
<polygon fill="none" stroke="black" points="873.5,-173.5 873.5,-226.5 1044.5,-226.5 1044.5,-173.5 873.5,-173.5"/>
<text text-anchor="start" x="881.5" y="-211.3" font-family="Times,serif" font-size="14.00">0x804890c:</text>
<text text-anchor="start" x="881.5" y="-196.3" font-family="Times,serif" font-size="14.00"> result = write_note()</text>
<text text-anchor="start" x="881.5" y="-181.3" font-family="Times,serif" font-size="14.00"> break</text>
</g>
<!-- Node0x1b4db40&#45;&gt;Node0x20be360 -->
<g id="edge5" class="edge"><title>Node0x1b4db40&#45;&gt;Node0x20be360</title>
<path fill="none" stroke="black" d="M865.519,-298.324C914.15,-290.508 961.101,-278.404 976,-260 981.556,-253.138 981.737,-244.54 979.439,-236.047"/>
<polygon fill="black" stroke="black" points="982.698,-234.768 975.947,-226.603 976.132,-237.196 982.698,-234.768"/>
<text text-anchor="middle" x="1100.5" y="-248.8" font-family="Times,serif" font-size="14.00">TruncCastExpr&lt;int8&gt;(v1) == 87</text>
</g>
<!-- Node0x1ad86d0 -->
<g id="node7" class="node"><title>Node0x1ad86d0</title>
<polygon fill="none" stroke="black" points="677.5,-97.5 677.5,-135.5 790.5,-135.5 790.5,-97.5 677.5,-97.5"/>
<text text-anchor="start" x="685.5" y="-120.3" font-family="Times,serif" font-size="14.00">0x804891f:</text>
<text text-anchor="start" x="685.5" y="-105.3" font-family="Times,serif" font-size="14.00"> return result</text>
</g>
<!-- Node0x1b70f90&#45;&gt;Node0x1ad86d0 -->
<g id="edge6" class="edge"><title>Node0x1b70f90&#45;&gt;Node0x1ad86d0</title>
<path fill="none" stroke="black" d="M417.283,-173.492C500.894,-158.711 602.189,-140.803 667.337,-129.285"/>
<polygon fill="black" stroke="black" points="668.236,-132.681 677.474,-127.493 667.017,-125.788 668.236,-132.681"/>
</g>
<!-- Node0x1aa87f0&#45;&gt;Node0x1ad86d0 -->
<g id="edge7" class="edge"><title>Node0x1aa87f0&#45;&gt;Node0x1ad86d0</title>
<path fill="none" stroke="black" d="M734,-173.213C734,-164.526 734,-154.787 734,-145.91"/>
<polygon fill="black" stroke="black" points="737.5,-145.638 734,-135.638 730.5,-145.638 737.5,-145.638"/>
</g>
<!-- Node0x20be360&#45;&gt;Node0x1ad86d0 -->
<g id="edge8" class="edge"><title>Node0x20be360&#45;&gt;Node0x1ad86d0</title>
<path fill="none" stroke="black" d="M888.426,-173.437C857.974,-162.406 822.739,-149.643 793.621,-139.096"/>
<polygon fill="black" stroke="black" points="794.591,-135.725 783.997,-135.61 792.207,-142.307 794.591,-135.725"/>
</g>
<!-- Node0x1bb6b60 -->
<g id="node8" class="node"><title>Node0x1bb6b60</title>
<polygon fill="none" stroke="black" points="707,-23.5 707,-59.5 761,-59.5 761,-23.5 707,-23.5"/>
<text text-anchor="start" x="715" y="-37.8" font-family="Times,serif" font-size="14.00">exit:</text>
</g>
<!-- Node0x1ad86d0&#45;&gt;Node0x1bb6b60 -->
<g id="edge9" class="edge"><title>Node0x1ad86d0&#45;&gt;Node0x1bb6b60</title>
<path fill="none" stroke="black" d="M734,-97.4551C734,-89.2008 734,-79.2377 734,-70.0742"/>
<polygon fill="black" stroke="black" points="737.5,-69.8347 734,-59.8347 730.5,-69.8347 737.5,-69.8347"/>
</g>
</g>
</svg>
