<?xml version="1.0" encoding="UTF-8" standalone="no"?>
<!DOCTYPE svg PUBLIC "-//W3C//DTD SVG 1.1//EN"
 "http://www.w3.org/Graphics/SVG/1.1/DTD/svg11.dtd">
<!-- Generated by graphviz version 2.38.0 (20140413.2041)
 -->
<!-- Title: Call graph of the module. Pages: 1 -->
<svg width="865pt" height="506pt"
 viewBox="0.00 0.00 864.67 506.00" xmlns="http://www.w3.org/2000/svg" xmlns:xlink="http://www.w3.org/1999/xlink">
<g id="graph0" class="graph" transform="scale(1 1) rotate(0) translate(4 502)">
<title>Call graph of the module.</title>
<polygon fill="white" stroke="none" points="-4,4 -4,-502 860.671,-502 860.671,4 -4,4"/>
<text text-anchor="middle" x="428.336" y="-7.8" font-family="Times,serif" font-size="14.00">Call graph of the module.</text>
<!-- Node_partial_write -->
<g id="node1" class="node"><title>Node_partial_write</title>
<polygon fill="none" stroke="black" points="92,-96.5 92,-132.5 201,-132.5 201,-96.5 92,-96.5"/>
<text text-anchor="middle" x="146.5" y="-110.8" font-family="Times,serif" font-size="14.00">partial_write</text>
</g>
<!-- Node_err -->
<g id="node17" class="node"><title>Node_err</title>
<polygon fill="none" stroke="#7f7f7f" points="274.5,-23.5 274.5,-59.5 328.5,-59.5 328.5,-23.5 274.5,-23.5"/>
<text text-anchor="middle" x="301.5" y="-37.8" font-family="Times,serif" font-size="14.00" fill="#7f7f7f">err</text>
</g>
<!-- Node_partial_write&#45;&gt;Node_err -->
<g id="edge1" class="edge"><title>Node_partial_write&#45;&gt;Node_err</title>
<path fill="none" stroke="black" d="M183.626,-96.4937C208.295,-85.1939 240.535,-70.4259 265.061,-59.1913"/>
<polygon fill="black" stroke="black" points="266.751,-62.2672 274.385,-54.9206 263.836,-55.9031 266.751,-62.2672"/>
</g>
<!-- Node_write -->
<g id="node20" class="node"><title>Node_write</title>
<polygon fill="none" stroke="#7f7f7f" points="161.5,-23.5 161.5,-59.5 215.5,-59.5 215.5,-23.5 161.5,-23.5"/>
<text text-anchor="middle" x="188.5" y="-37.8" font-family="Times,serif" font-size="14.00" fill="#7f7f7f">write</text>
</g>
<!-- Node_partial_write&#45;&gt;Node_write -->
<g id="edge2" class="edge"><title>Node_partial_write&#45;&gt;Node_write</title>
<path fill="none" stroke="black" d="M156.667,-96.3129C161.62,-87.9407 167.679,-77.6971 173.177,-68.4026"/>
<polygon fill="black" stroke="black" points="176.348,-69.9177 178.427,-59.5288 170.323,-66.3537 176.348,-69.9177"/>
</g>
<!-- Node___assert_fail -->
<g id="node27" class="node"><title>Node___assert_fail</title>
<polygon fill="none" stroke="#7f7f7f" points="37.5,-23.5 37.5,-59.5 143.5,-59.5 143.5,-23.5 37.5,-23.5"/>
<text text-anchor="middle" x="90.5" y="-37.8" font-family="Times,serif" font-size="14.00" fill="#7f7f7f">__assert_fail</text>
</g>
<!-- Node_partial_write&#45;&gt;Node___assert_fail -->
<g id="edge3" class="edge"><title>Node_partial_write&#45;&gt;Node___assert_fail</title>
<path fill="none" stroke="black" d="M132.944,-96.3129C126.134,-87.679 117.755,-77.0551 110.245,-67.5341"/>
<polygon fill="black" stroke="black" points="112.872,-65.213 103.931,-59.5288 107.376,-69.548 112.872,-65.213"/>
</g>
<!-- Node_out -->
<g id="node2" class="node"><title>Node_out</title>
<polygon fill="none" stroke="black" points="196.5,-169.5 196.5,-205.5 250.5,-205.5 250.5,-169.5 196.5,-169.5"/>
<text text-anchor="middle" x="223.5" y="-183.8" font-family="Times,serif" font-size="14.00">out</text>
</g>
<!-- Node_out&#45;&gt;Node_partial_write -->
<g id="edge4" class="edge"><title>Node_out&#45;&gt;Node_partial_write</title>
<path fill="none" stroke="black" d="M204.86,-169.313C195.119,-160.33 183.041,-149.193 172.404,-139.386"/>
<polygon fill="black" stroke="black" points="174.692,-136.735 164.968,-132.529 169.947,-141.881 174.692,-136.735"/>
</g>
<!-- Node_errx -->
<g id="node23" class="node"><title>Node_errx</title>
<polygon fill="none" stroke="#7f7f7f" points="219.5,-96.5 219.5,-132.5 273.5,-132.5 273.5,-96.5 219.5,-96.5"/>
<text text-anchor="middle" x="246.5" y="-110.8" font-family="Times,serif" font-size="14.00" fill="#7f7f7f">errx</text>
</g>
<!-- Node_out&#45;&gt;Node_errx -->
<g id="edge5" class="edge"><title>Node_out&#45;&gt;Node_errx</title>
<path fill="none" stroke="black" d="M229.068,-169.313C231.695,-161.202 234.891,-151.336 237.826,-142.277"/>
<polygon fill="black" stroke="black" points="241.231,-143.121 240.984,-132.529 234.572,-140.963 241.231,-143.121"/>
</g>
<!-- Node_string_out -->
<g id="node3" class="node"><title>Node_string_out</title>
<polygon fill="none" stroke="black" points="166.5,-242.5 166.5,-278.5 256.5,-278.5 256.5,-242.5 166.5,-242.5"/>
<text text-anchor="middle" x="211.5" y="-256.8" font-family="Times,serif" font-size="14.00">string_out</text>
</g>
<!-- Node_string_out&#45;&gt;Node_out -->
<g id="edge6" class="edge"><title>Node_string_out&#45;&gt;Node_out</title>
<path fill="none" stroke="black" d="M214.405,-242.313C215.761,-234.289 217.407,-224.547 218.925,-215.569"/>
<polygon fill="black" stroke="black" points="222.406,-215.972 220.622,-205.529 215.504,-214.806 222.406,-215.972"/>
</g>
<!-- Node_strlen -->
<g id="node19" class="node"><title>Node_strlen</title>
<polygon fill="none" stroke="#7f7f7f" points="119,-169.5 119,-205.5 178,-205.5 178,-169.5 119,-169.5"/>
<text text-anchor="middle" x="148.5" y="-183.8" font-family="Times,serif" font-size="14.00" fill="#7f7f7f">strlen</text>
</g>
<!-- Node_string_out&#45;&gt;Node_strlen -->
<g id="edge7" class="edge"><title>Node_string_out&#45;&gt;Node_strlen</title>
<path fill="none" stroke="black" d="M196.249,-242.313C188.511,-233.592 178.971,-222.84 170.458,-213.246"/>
<polygon fill="black" stroke="black" points="172.865,-210.686 163.61,-205.529 167.629,-215.332 172.865,-210.686"/>
</g>
<!-- Node_service_example -->
<g id="node4" class="node"><title>Node_service_example</title>
<polygon fill="none" stroke="black" points="622.5,-388.5 622.5,-424.5 758.5,-424.5 758.5,-388.5 622.5,-388.5"/>
<text text-anchor="middle" x="690.5" y="-402.8" font-family="Times,serif" font-size="14.00">service_example</text>
</g>
<!-- Node_service_example&#45;&gt;Node_string_out -->
<g id="edge8" class="edge"><title>Node_service_example&#45;&gt;Node_string_out</title>
<path fill="none" stroke="black" d="M622.32,-398.973C560.801,-391.761 468.425,-377.617 391.5,-352 339.407,-334.653 283.522,-304.553 248.08,-283.862"/>
<polygon fill="black" stroke="black" points="249.477,-280.622 239.086,-278.556 245.921,-286.651 249.477,-280.622"/>
</g>
<!-- Node_read_note -->
<g id="node5" class="node"><title>Node_read_note</title>
<polygon fill="none" stroke="black" points="400.5,-315.5 400.5,-351.5 488.5,-351.5 488.5,-315.5 400.5,-315.5"/>
<text text-anchor="middle" x="444.5" y="-329.8" font-family="Times,serif" font-size="14.00">read_note</text>
</g>
<!-- Node_service_example&#45;&gt;Node_read_note -->
<g id="edge9" class="edge"><title>Node_service_example&#45;&gt;Node_read_note</title>
<path fill="none" stroke="black" d="M631.577,-388.494C591.086,-376.807 537.743,-361.411 498.381,-350.051"/>
<polygon fill="black" stroke="black" points="499.27,-346.665 488.692,-347.255 497.329,-353.39 499.27,-346.665"/>
</g>
<!-- Node_write_note -->
<g id="node6" class="node"><title>Node_write_note</title>
<polygon fill="none" stroke="black" points="604,-315.5 604,-351.5 697,-351.5 697,-315.5 604,-315.5"/>
<text text-anchor="middle" x="650.5" y="-329.8" font-family="Times,serif" font-size="14.00">write_note</text>
</g>
<!-- Node_service_example&#45;&gt;Node_write_note -->
<g id="edge10" class="edge"><title>Node_service_example&#45;&gt;Node_write_note</title>
<path fill="none" stroke="black" d="M680.817,-388.313C676.1,-379.941 670.329,-369.697 665.093,-360.403"/>
<polygon fill="black" stroke="black" points="668.052,-358.523 660.094,-351.529 661.953,-361.959 668.052,-358.523"/>
</g>
<!-- Node_fflush -->
<g id="node12" class="node"><title>Node_fflush</title>
<polygon fill="none" stroke="#7f7f7f" points="706,-242.5 706,-278.5 763,-278.5 763,-242.5 706,-242.5"/>
<text text-anchor="middle" x="734.5" y="-256.8" font-family="Times,serif" font-size="14.00" fill="#7f7f7f">fflush</text>
</g>
<!-- Node_service_example&#45;&gt;Node_fflush -->
<g id="edge11" class="edge"><title>Node_service_example&#45;&gt;Node_fflush</title>
<path fill="none" stroke="black" d="M695.72,-388.416C703.295,-363.625 717.405,-317.448 726.355,-288.156"/>
<polygon fill="black" stroke="black" points="729.712,-289.148 729.287,-278.562 723.017,-287.103 729.712,-289.148"/>
</g>
<!-- Node_fgets -->
<g id="node14" class="node"><title>Node_fgets</title>
<polygon fill="none" stroke="#7f7f7f" points="601.5,-169.5 601.5,-205.5 655.5,-205.5 655.5,-169.5 601.5,-169.5"/>
<text text-anchor="middle" x="628.5" y="-183.8" font-family="Times,serif" font-size="14.00" fill="#7f7f7f">fgets</text>
</g>
<!-- Node_service_example&#45;&gt;Node_fgets -->
<g id="edge12" class="edge"><title>Node_service_example&#45;&gt;Node_fgets</title>
<path fill="none" stroke="black" d="M728.583,-388.327C787.801,-359.312 890.606,-298.241 844.5,-242 794.797,-181.372 745.798,-228.072 665.645,-205.701"/>
<polygon fill="black" stroke="black" points="666.302,-202.24 655.713,-202.618 664.227,-208.925 666.302,-202.24"/>
</g>
<!-- Node_puts -->
<g id="node18" class="node"><title>Node_puts</title>
<polygon fill="none" stroke="#7f7f7f" points="781.5,-242.5 781.5,-278.5 835.5,-278.5 835.5,-242.5 781.5,-242.5"/>
<text text-anchor="middle" x="808.5" y="-256.8" font-family="Times,serif" font-size="14.00" fill="#7f7f7f">puts</text>
</g>
<!-- Node_service_example&#45;&gt;Node_puts -->
<g id="edge13" class="edge"><title>Node_service_example&#45;&gt;Node_puts</title>
<path fill="none" stroke="black" d="M704.5,-388.416C725.169,-363.192 763.981,-315.828 787.902,-286.637"/>
<polygon fill="black" stroke="black" points="790.888,-288.515 794.519,-278.562 785.473,-284.078 790.888,-288.515"/>
</g>
<!-- Node_read_note&#45;&gt;Node_string_out -->
<g id="edge14" class="edge"><title>Node_read_note&#45;&gt;Node_string_out</title>
<path fill="none" stroke="black" d="M400.277,-319.59C366.124,-309.55 317.448,-295.091 266.161,-279.175"/>
<polygon fill="black" stroke="black" points="267.145,-275.816 256.557,-276.187 265.065,-282.5 267.145,-275.816"/>
</g>
<!-- Node_read_file -->
<g id="node8" class="node"><title>Node_read_file</title>
<polygon fill="none" stroke="black" points="274.5,-242.5 274.5,-278.5 352.5,-278.5 352.5,-242.5 274.5,-242.5"/>
<text text-anchor="middle" x="313.5" y="-256.8" font-family="Times,serif" font-size="14.00">read_file</text>
</g>
<!-- Node_read_note&#45;&gt;Node_read_file -->
<g id="edge15" class="edge"><title>Node_read_note&#45;&gt;Node_read_file</title>
<path fill="none" stroke="black" d="M413.122,-315.494C395.429,-305.904 373.127,-293.817 354.112,-283.511"/>
<polygon fill="black" stroke="black" points="355.535,-280.302 345.076,-278.614 352.2,-286.456 355.535,-280.302"/>
</g>
<!-- Node_strcmp -->
<g id="node10" class="node"><title>Node_strcmp</title>
<polygon fill="none" stroke="#7f7f7f" points="370.5,-242.5 370.5,-278.5 438.5,-278.5 438.5,-242.5 370.5,-242.5"/>
<text text-anchor="middle" x="404.5" y="-256.8" font-family="Times,serif" font-size="14.00" fill="#7f7f7f">strcmp</text>
</g>
<!-- Node_read_note&#45;&gt;Node_strcmp -->
<g id="edge16" class="edge"><title>Node_read_note&#45;&gt;Node_strcmp</title>
<path fill="none" stroke="black" d="M434.817,-315.313C430.1,-306.941 424.329,-296.697 419.093,-287.403"/>
<polygon fill="black" stroke="black" points="422.052,-285.523 414.094,-278.529 415.953,-288.959 422.052,-285.523"/>
</g>
<!-- Node_printf -->
<g id="node11" class="node"><title>Node_printf</title>
<polygon fill="none" stroke="#7f7f7f" points="0,-242.5 0,-278.5 57,-278.5 57,-242.5 0,-242.5"/>
<text text-anchor="middle" x="28.5" y="-256.8" font-family="Times,serif" font-size="14.00" fill="#7f7f7f">printf</text>
</g>
<!-- Node_read_note&#45;&gt;Node_printf -->
<g id="edge17" class="edge"><title>Node_read_note&#45;&gt;Node_printf</title>
<path fill="none" stroke="black" d="M400.388,-330.577C330.568,-326.608 190.606,-314.889 66.8915,-278.967"/>
<polygon fill="black" stroke="black" points="67.8395,-275.598 57.257,-276.11 65.8493,-282.309 67.8395,-275.598"/>
</g>
<!-- Node_read_note&#45;&gt;Node_fflush -->
<g id="edge18" class="edge"><title>Node_read_note&#45;&gt;Node_fflush</title>
<path fill="none" stroke="black" d="M488.754,-326.351C537.821,-318.832 619.218,-304.276 695.874,-279.19"/>
<polygon fill="black" stroke="black" points="697.305,-282.402 705.68,-275.913 695.086,-275.763 697.305,-282.402"/>
</g>
<!-- Node_read_note&#45;&gt;Node_puts -->
<g id="edge19" class="edge"><title>Node_read_note&#45;&gt;Node_puts</title>
<path fill="none" stroke="black" d="M488.547,-326.93C561.545,-317.444 705.368,-297.61 771.733,-278.639"/>
<polygon fill="black" stroke="black" points="772.771,-281.981 781.321,-275.725 770.736,-275.284 772.771,-281.981"/>
</g>
<!-- Node_putchar -->
<g id="node22" class="node"><title>Node_putchar</title>
<polygon fill="none" stroke="#7f7f7f" points="75,-242.5 75,-278.5 148,-278.5 148,-242.5 75,-242.5"/>
<text text-anchor="middle" x="111.5" y="-256.8" font-family="Times,serif" font-size="14.00" fill="#7f7f7f">putchar</text>
</g>
<!-- Node_read_note&#45;&gt;Node_putchar -->
<g id="edge20" class="edge"><title>Node_read_note&#45;&gt;Node_putchar</title>
<path fill="none" stroke="black" d="M400.177,-326.755C345.249,-319.084 248.795,-303.809 157.846,-278.821"/>
<polygon fill="black" stroke="black" points="158.786,-275.45 148.213,-276.131 156.903,-282.192 158.786,-275.45"/>
</g>
<!-- Node_sprintf -->
<g id="node24" class="node"><title>Node_sprintf</title>
<polygon fill="none" stroke="#7f7f7f" points="530,-242.5 530,-278.5 595,-278.5 595,-242.5 530,-242.5"/>
<text text-anchor="middle" x="562.5" y="-256.8" font-family="Times,serif" font-size="14.00" fill="#7f7f7f">sprintf</text>
</g>
<!-- Node_read_note&#45;&gt;Node_sprintf -->
<g id="edge21" class="edge"><title>Node_read_note&#45;&gt;Node_sprintf</title>
<path fill="none" stroke="black" d="M472.764,-315.494C488.557,-305.991 508.426,-294.036 525.451,-283.792"/>
<polygon fill="black" stroke="black" points="527.294,-286.768 534.058,-278.614 523.685,-280.77 527.294,-286.768"/>
</g>
<!-- Node_scanf -->
<g id="node25" class="node"><title>Node_scanf</title>
<polygon fill="none" stroke="#7f7f7f" points="457,-242.5 457,-278.5 512,-278.5 512,-242.5 457,-242.5"/>
<text text-anchor="middle" x="484.5" y="-256.8" font-family="Times,serif" font-size="14.00" fill="#7f7f7f">scanf</text>
</g>
<!-- Node_read_note&#45;&gt;Node_scanf -->
<g id="edge22" class="edge"><title>Node_read_note&#45;&gt;Node_scanf</title>
<path fill="none" stroke="black" d="M454.183,-315.313C458.9,-306.941 464.671,-296.697 469.907,-287.403"/>
<polygon fill="black" stroke="black" points="473.047,-288.959 474.906,-278.529 466.948,-285.523 473.047,-288.959"/>
</g>
<!-- Node_write_note&#45;&gt;Node_string_out -->
<g id="edge23" class="edge"><title>Node_write_note&#45;&gt;Node_string_out</title>
<path fill="none" stroke="black" d="M603.9,-327.063C519.821,-317.089 344.938,-295.552 266.655,-278.988"/>
<polygon fill="black" stroke="black" points="267.232,-275.531 256.712,-276.788 265.72,-282.366 267.232,-275.531"/>
</g>
<!-- Node_new_file -->
<g id="node7" class="node"><title>Node_new_file</title>
<polygon fill="none" stroke="black" points="613,-242.5 613,-278.5 688,-278.5 688,-242.5 613,-242.5"/>
<text text-anchor="middle" x="650.5" y="-256.8" font-family="Times,serif" font-size="14.00">new_file</text>
</g>
<!-- Node_write_note&#45;&gt;Node_new_file -->
<g id="edge24" class="edge"><title>Node_write_note&#45;&gt;Node_new_file</title>
<path fill="none" stroke="black" d="M650.5,-315.313C650.5,-307.289 650.5,-297.547 650.5,-288.569"/>
<polygon fill="black" stroke="black" points="654,-288.529 650.5,-278.529 647,-288.529 654,-288.529"/>
</g>
<!-- Node_write_note&#45;&gt;Node_fflush -->
<g id="edge25" class="edge"><title>Node_write_note&#45;&gt;Node_fflush</title>
<path fill="none" stroke="black" d="M670.834,-315.313C681.565,-306.243 694.894,-294.977 706.578,-285.1"/>
<polygon fill="black" stroke="black" points="708.975,-287.657 714.353,-278.529 704.456,-282.311 708.975,-287.657"/>
</g>
<!-- Node_write_note&#45;&gt;Node_puts -->
<g id="edge26" class="edge"><title>Node_write_note&#45;&gt;Node_puts</title>
<path fill="none" stroke="black" d="M690.512,-315.423C712.358,-305.993 740.053,-293.867 772.233,-279.051"/>
<polygon fill="black" stroke="black" points="773.819,-282.174 781.427,-274.801 770.882,-275.82 773.819,-282.174"/>
</g>
<!-- Node_write_note&#45;&gt;Node_sprintf -->
<g id="edge27" class="edge"><title>Node_write_note&#45;&gt;Node_sprintf</title>
<path fill="none" stroke="black" d="M629.198,-315.313C617.848,-306.156 603.724,-294.76 591.399,-284.816"/>
<polygon fill="black" stroke="black" points="593.587,-282.084 583.606,-278.529 589.191,-287.532 593.587,-282.084"/>
</g>
<!-- Node_write_note&#45;&gt;Node_scanf -->
<g id="edge28" class="edge"><title>Node_write_note&#45;&gt;Node_scanf</title>
<path fill="none" stroke="black" d="M607.177,-315.454C583.944,-306.135 554.675,-294.114 521.719,-279.446"/>
<polygon fill="black" stroke="black" points="522.885,-276.133 512.328,-275.238 520.023,-282.521 522.885,-276.133"/>
</g>
<!-- Node_fclose -->
<g id="node15" class="node"><title>Node_fclose</title>
<polygon fill="none" stroke="#7f7f7f" points="486,-169.5 486,-205.5 545,-205.5 545,-169.5 486,-169.5"/>
<text text-anchor="middle" x="515.5" y="-183.8" font-family="Times,serif" font-size="14.00" fill="#7f7f7f">fclose</text>
</g>
<!-- Node_new_file&#45;&gt;Node_fclose -->
<g id="edge29" class="edge"><title>Node_new_file&#45;&gt;Node_fclose</title>
<path fill="none" stroke="black" d="M618.164,-242.494C598.953,-232.39 574.469,-219.514 554.231,-208.869"/>
<polygon fill="black" stroke="black" points="555.745,-205.711 545.265,-204.154 552.486,-211.907 555.745,-205.711"/>
</g>
<!-- Node_new_file&#45;&gt;Node_err -->
<g id="edge30" class="edge"><title>Node_new_file&#45;&gt;Node_err</title>
<path fill="none" stroke="black" d="M631.574,-242.28C620.181,-231.855 605.426,-218.25 592.5,-206 575.391,-189.785 573.714,-182.655 554.5,-169 483.426,-118.489 389.236,-77.1916 338.187,-56.6255"/>
<polygon fill="black" stroke="black" points="339.457,-53.364 328.872,-52.9106 336.864,-59.866 339.457,-53.364"/>
</g>
<!-- Node_fopen -->
<g id="node21" class="node"><title>Node_fopen</title>
<polygon fill="none" stroke="#7f7f7f" points="411.5,-169.5 411.5,-205.5 467.5,-205.5 467.5,-169.5 411.5,-169.5"/>
<text text-anchor="middle" x="439.5" y="-183.8" font-family="Times,serif" font-size="14.00" fill="#7f7f7f">fopen</text>
</g>
<!-- Node_new_file&#45;&gt;Node_fopen -->
<g id="edge31" class="edge"><title>Node_new_file&#45;&gt;Node_fopen</title>
<path fill="none" stroke="black" d="M612.942,-244.899C610.096,-243.888 607.259,-242.911 604.5,-242 551.232,-224.416 533.631,-226.434 477.006,-205.873"/>
<polygon fill="black" stroke="black" points="478.165,-202.57 467.572,-202.373 475.73,-209.133 478.165,-202.57"/>
</g>
<!-- Node_fputs -->
<g id="node26" class="node"><title>Node_fputs</title>
<polygon fill="none" stroke="#7f7f7f" points="673.5,-169.5 673.5,-205.5 727.5,-205.5 727.5,-169.5 673.5,-169.5"/>
<text text-anchor="middle" x="700.5" y="-183.8" font-family="Times,serif" font-size="14.00" fill="#7f7f7f">fputs</text>
</g>
<!-- Node_new_file&#45;&gt;Node_fputs -->
<g id="edge32" class="edge"><title>Node_new_file&#45;&gt;Node_fputs</title>
<path fill="none" stroke="black" d="M662.604,-242.313C668.622,-233.766 676.014,-223.269 682.667,-213.823"/>
<polygon fill="black" stroke="black" points="685.612,-215.72 688.508,-205.529 679.888,-211.69 685.612,-215.72"/>
</g>
<!-- Node_strdup -->
<g id="node13" class="node"><title>Node_strdup</title>
<polygon fill="none" stroke="#7f7f7f" points="329.5,-169.5 329.5,-205.5 393.5,-205.5 393.5,-169.5 329.5,-169.5"/>
<text text-anchor="middle" x="361.5" y="-183.8" font-family="Times,serif" font-size="14.00" fill="#7f7f7f">strdup</text>
</g>
<!-- Node_read_file&#45;&gt;Node_strdup -->
<g id="edge33" class="edge"><title>Node_read_file&#45;&gt;Node_strdup</title>
<path fill="none" stroke="black" d="M325.119,-242.313C330.897,-233.766 337.994,-223.269 344.38,-213.823"/>
<polygon fill="black" stroke="black" points="347.286,-215.774 349.988,-205.529 341.487,-211.853 347.286,-215.774"/>
</g>
<!-- Node_read_file&#45;&gt;Node_fgets -->
<g id="edge34" class="edge"><title>Node_read_file&#45;&gt;Node_fgets</title>
<path fill="none" stroke="black" d="M352.622,-244.639C355.608,-243.689 358.591,-242.796 361.5,-242 445.665,-218.977 469.129,-224.046 554.5,-206 566.488,-203.466 579.51,-200.469 591.241,-197.678"/>
<polygon fill="black" stroke="black" points="592.253,-201.035 601.159,-195.295 590.618,-194.228 592.253,-201.035"/>
</g>
<!-- Node_read_file&#45;&gt;Node_fclose -->
<g id="edge35" class="edge"><title>Node_read_file&#45;&gt;Node_fclose</title>
<path fill="none" stroke="black" d="M352.741,-245.026C355.699,-243.986 358.644,-242.967 361.5,-242 412.228,-224.823 426.425,-224.996 476.5,-206 476.595,-205.964 476.691,-205.927 476.787,-205.891"/>
<polygon fill="black" stroke="black" points="477.873,-209.227 485.842,-202.244 475.258,-202.734 477.873,-209.227"/>
</g>
<!-- Node_read_file&#45;&gt;Node_err -->
<g id="edge36" class="edge"><title>Node_read_file&#45;&gt;Node_err</title>
<path fill="none" stroke="black" d="M312.558,-242.472C310.487,-205.011 305.519,-115.176 303.008,-69.7642"/>
<polygon fill="black" stroke="black" points="306.501,-69.5403 302.454,-59.7488 299.511,-69.9268 306.501,-69.5403"/>
</g>
<!-- Node_read_file&#45;&gt;Node_fopen -->
<g id="edge37" class="edge"><title>Node_read_file&#45;&gt;Node_fopen</title>
<path fill="none" stroke="black" d="M343.68,-242.494C361.324,-232.552 383.732,-219.925 402.442,-209.382"/>
<polygon fill="black" stroke="black" points="404.299,-212.353 411.293,-204.394 400.863,-206.254 404.299,-212.353"/>
</g>
<!-- Node_main -->
<g id="node9" class="node"><title>Node_main</title>
<polygon fill="none" stroke="black" points="719.5,-461.5 719.5,-497.5 773.5,-497.5 773.5,-461.5 719.5,-461.5"/>
<text text-anchor="middle" x="746.5" y="-475.8" font-family="Times,serif" font-size="14.00">main</text>
</g>
<!-- Node_main&#45;&gt;Node_service_example -->
<g id="edge38" class="edge"><title>Node_main&#45;&gt;Node_service_example</title>
<path fill="none" stroke="black" d="M732.944,-461.313C726.134,-452.679 717.755,-442.055 710.245,-432.534"/>
<polygon fill="black" stroke="black" points="712.872,-430.213 703.931,-424.529 707.376,-434.548 712.872,-430.213"/>
</g>
<!-- Node_chdir -->
<g id="node16" class="node"><title>Node_chdir</title>
<polygon fill="none" stroke="#7f7f7f" points="776.5,-388.5 776.5,-424.5 830.5,-424.5 830.5,-388.5 776.5,-388.5"/>
<text text-anchor="middle" x="803.5" y="-402.8" font-family="Times,serif" font-size="14.00" fill="#7f7f7f">chdir</text>
</g>
<!-- Node_main&#45;&gt;Node_chdir -->
<g id="edge39" class="edge"><title>Node_main&#45;&gt;Node_chdir</title>
<path fill="none" stroke="black" d="M760.298,-461.313C767.23,-452.679 775.759,-442.055 783.402,-432.534"/>
<polygon fill="black" stroke="black" points="786.298,-434.518 789.829,-424.529 780.839,-430.136 786.298,-434.518"/>
</g>
</g>
</svg>
