<?xml version="1.0" encoding="UTF-8" standalone="no"?>
<!DOCTYPE svg PUBLIC "-//W3C//DTD SVG 1.1//EN"
 "http://www.w3.org/Graphics/SVG/1.1/DTD/svg11.dtd">
<!-- Generated by graphviz version 2.38.0 (20140413.2041)
 -->
<!-- Title: Control&#45;flow graph for function &#39;read_note()&#39;. Pages: 1 -->
<svg width="1361pt" height="812pt"
 viewBox="0.00 0.00 1360.50 812.00" xmlns="http://www.w3.org/2000/svg" xmlns:xlink="http://www.w3.org/1999/xlink">
<g id="graph0" class="graph" transform="scale(1 1) rotate(0) translate(4 808)">
<title>Control&#45;flow graph for function &#39;read_note()&#39;.</title>
<polygon fill="white" stroke="none" points="-4,4 -4,-808 1356.5,-808 1356.5,4 -4,4"/>
<text text-anchor="middle" x="676.25" y="-7.8" font-family="Times,serif" font-size="14.00">Control&#45;flow graph for function &#39;read_note()&#39;.</text>
<!-- Node0x1b93700 -->
<g id="node1" class="node"><title>Node0x1b93700</title>
<polygon fill="none" stroke="black" points="314,-767.5 314,-803.5 373,-803.5 373,-767.5 314,-767.5"/>
<text text-anchor="start" x="322" y="-781.8" font-family="Times,serif" font-size="14.00">entry:</text>
</g>
<!-- Node0x209d470 -->
<g id="node2" class="node"><title>Node0x209d470</title>
<polygon fill="none" stroke="black" points="198,-646.5 198,-729.5 489,-729.5 489,-646.5 198,-646.5"/>
<text text-anchor="start" x="206" y="-714.3" font-family="Times,serif" font-size="14.00">puts(&quot;Please send: note_id password&quot;)</text>
<text text-anchor="start" x="206" y="-699.3" font-family="Times,serif" font-size="14.00"> fflush(g2)</text>
<text text-anchor="start" x="206" y="-684.3" font-family="Times,serif" font-size="14.00"> putchar_rc</text>
<text text-anchor="start" x="206" y="-669.3" font-family="Times,serif" font-size="14.00"> v1</text>
<text text-anchor="start" x="206" y="-654.3" font-family="Times,serif" font-size="14.00"> str2</text>
</g>
<!-- Node0x1b93700&#45;&gt;Node0x209d470 -->
<g id="edge1" class="edge"><title>Node0x1b93700&#45;&gt;Node0x209d470</title>
<path fill="none" stroke="black" d="M343.5,-767.427C343.5,-759.622 343.5,-749.921 343.5,-740.032"/>
<polygon fill="black" stroke="black" points="347,-739.73 343.5,-729.73 340,-739.73 347,-739.73"/>
</g>
<!-- Node0x258a760 -->
<g id="node3" class="node"><title>Node0x258a760</title>
<polygon fill="none" stroke="black" points="178.5,-572.5 178.5,-608.5 508.5,-608.5 508.5,-572.5 178.5,-572.5"/>
<text text-anchor="start" x="186.5" y="-586.8" font-family="Times,serif" font-size="14.00">if (scanf(&quot;%u %200s&quot;, &amp;(v1), &amp;(str2)) != 2):</text>
</g>
<!-- Node0x209d470&#45;&gt;Node0x258a760 -->
<g id="edge2" class="edge"><title>Node0x209d470&#45;&gt;Node0x258a760</title>
<path fill="none" stroke="black" d="M343.5,-646.499C343.5,-637.206 343.5,-627.537 343.5,-618.946"/>
<polygon fill="black" stroke="black" points="347,-618.749 343.5,-608.749 340,-618.749 347,-618.749"/>
</g>
<!-- Node0x1affdf0 -->
<g id="node4" class="node"><title>Node0x1affdf0</title>
<polygon fill="none" stroke="black" points="0,-380.5 0,-433.5 379,-433.5 379,-380.5 0,-380.5"/>
<text text-anchor="start" x="8" y="-418.3" font-family="Times,serif" font-size="14.00">0x8048965:</text>
<text text-anchor="start" x="8" y="-403.3" font-family="Times,serif" font-size="14.00"> putchar_rc = string_out(&quot;Can&#39;t parse yo stuff!\n&quot;)</text>
<text text-anchor="start" x="8" y="-388.3" font-family="Times,serif" font-size="14.00"> return putchar_rc</text>
</g>
<!-- Node0x258a760&#45;&gt;Node0x1affdf0 -->
<g id="edge3" class="edge"><title>Node0x258a760&#45;&gt;Node0x1affdf0</title>
<path fill="none" stroke="black" d="M224.203,-572.403C206.699,-567.582 192.519,-561.532 186.5,-554 161.864,-523.172 168.296,-475.857 177.123,-443.501"/>
<polygon fill="black" stroke="black" points="180.582,-444.142 180.037,-433.561 173.865,-442.173 180.582,-444.142"/>
<text text-anchor="middle" x="329" y="-542.8" font-family="Times,serif" font-size="14.00">scanf(&quot;%u %200s&quot;, &amp;(v1), &amp;(str2)) != 2</text>
</g>
<!-- Node0x20b4540 -->
<g id="node5" class="node"><title>Node0x20b4540</title>
<polygon fill="none" stroke="black" points="290,-452.5 290,-520.5 705,-520.5 705,-452.5 290,-452.5"/>
<text text-anchor="start" x="298" y="-505.3" font-family="Times,serif" font-size="14.00">0x8048976:</text>
<text text-anchor="start" x="298" y="-490.3" font-family="Times,serif" font-size="14.00"> str</text>
<text text-anchor="start" x="298" y="-475.3" font-family="Times,serif" font-size="14.00"> sprintf(BitCastExpr&lt;ptr&gt;(&amp;(str)), &quot;%u_password&quot;, v1)</text>
<text text-anchor="start" x="298" y="-460.3" font-family="Times,serif" font-size="14.00"> read_file(BitCastExpr&lt;ptr&gt;(&amp;(str)))</text>
</g>
<!-- Node0x258a760&#45;&gt;Node0x20b4540 -->
<g id="edge4" class="edge"><title>Node0x258a760&#45;&gt;Node0x20b4540</title>
<path fill="none" stroke="black" d="M447.575,-572.466C457.813,-567.704 467.393,-561.66 475.5,-554 482.251,-547.622 486.932,-539.13 490.177,-530.354"/>
<polygon fill="black" stroke="black" points="493.519,-531.395 493.165,-520.806 486.838,-529.305 493.519,-531.395"/>
<text text-anchor="middle" x="632" y="-542.8" font-family="Times,serif" font-size="14.00">scanf(&quot;%u %200s&quot;, &amp;(v1), &amp;(str2)) == 2</text>
</g>
<!-- Node0x208f6f0 -->
<g id="node6" class="node"><title>Node0x208f6f0</title>
<polygon fill="none" stroke="black" points="217.5,-23.5 217.5,-59.5 271.5,-59.5 271.5,-23.5 217.5,-23.5"/>
<text text-anchor="start" x="225.5" y="-37.8" font-family="Times,serif" font-size="14.00">exit:</text>
</g>
<!-- Node0x1affdf0&#45;&gt;Node0x208f6f0 -->
<g id="edge5" class="edge"><title>Node0x1affdf0&#45;&gt;Node0x208f6f0</title>
<path fill="none" stroke="black" d="M189.5,-380.37C189.5,-358.59 189.5,-326.495 189.5,-298.5 189.5,-298.5 189.5,-298.5 189.5,-115.5 189.5,-96.6641 201.325,-79.6008 214.009,-66.716"/>
<polygon fill="black" stroke="black" points="216.638,-69.0472 221.494,-59.6307 211.825,-63.9637 216.638,-69.0472"/>
</g>
<!-- Node0x20b3430 -->
<g id="node7" class="node"><title>Node0x20b3430</title>
<polygon fill="none" stroke="black" points="225.5,-323.5 225.5,-361.5 769.5,-361.5 769.5,-323.5 225.5,-323.5"/>
<text text-anchor="start" x="233.5" y="-346.3" font-family="Times,serif" font-size="14.00">if (strcmp(BitCastExpr&lt;ptr&gt;(&amp;(str2)), BitCastExpr&lt;ptr&gt;(&amp;(str))) == 0):</text>
<text text-anchor="start" x="233.5" y="-331.3" font-family="Times,serif" font-size="14.00"> else:</text>
</g>
<!-- Node0x20b4540&#45;&gt;Node0x20b3430 -->
<g id="edge6" class="edge"><title>Node0x20b4540&#45;&gt;Node0x20b3430</title>
<path fill="none" stroke="black" d="M497.5,-452.207C497.5,-427.863 497.5,-395.188 497.5,-372.036"/>
<polygon fill="black" stroke="black" points="501,-371.823 497.5,-361.823 494,-371.823 501,-371.823"/>
</g>
<!-- Node0x20b9b10 -->
<g id="node8" class="node"><title>Node0x20b9b10</title>
<polygon fill="none" stroke="black" points="218,-173.5 218,-271.5 557,-271.5 557,-173.5 218,-173.5"/>
<text text-anchor="start" x="226" y="-256.3" font-family="Times,serif" font-size="14.00">0x80489cb:</text>
<text text-anchor="start" x="226" y="-241.3" font-family="Times,serif" font-size="14.00"> sprintf(BitCastExpr&lt;ptr&gt;(&amp;(str)), &quot;%u&quot;, v1)</text>
<text text-anchor="start" x="226" y="-226.3" font-family="Times,serif" font-size="14.00"> read_file(BitCastExpr&lt;ptr&gt;(&amp;(str)))</text>
<text text-anchor="start" x="226" y="-211.3" font-family="Times,serif" font-size="14.00"> printf(&quot;Note content: &quot;)</text>
<text text-anchor="start" x="226" y="-196.3" font-family="Times,serif" font-size="14.00"> printf(BitCastExpr&lt;ptr&gt;(&amp;(str)))</text>
<text text-anchor="start" x="226" y="-181.3" font-family="Times,serif" font-size="14.00"> putchar_rc = putchar(10)</text>
</g>
<!-- Node0x20b3430&#45;&gt;Node0x20b9b10 -->
<g id="edge7" class="edge"><title>Node0x20b3430&#45;&gt;Node0x20b9b10</title>
<path fill="none" stroke="black" d="M391.194,-323.43C374.138,-318.443 360.198,-312.335 354.5,-305 348.981,-297.895 347.752,-289.742 349.13,-281.399"/>
<polygon fill="black" stroke="black" points="352.556,-282.142 351.846,-271.571 345.809,-280.278 352.556,-282.142"/>
<text text-anchor="middle" x="604" y="-293.8" font-family="Times,serif" font-size="14.00">strcmp(BitCastExpr&lt;ptr&gt;(&amp;(str2)), BitCastExpr&lt;ptr&gt;(&amp;(str))) == 0</text>
</g>
<!-- Node0x209cae0 -->
<g id="node9" class="node"><title>Node0x209cae0</title>
<polygon fill="none" stroke="black" points="609.5,-203.5 609.5,-241.5 1005.5,-241.5 1005.5,-203.5 609.5,-203.5"/>
<text text-anchor="start" x="617.5" y="-226.3" font-family="Times,serif" font-size="14.00">0x80489bd:</text>
<text text-anchor="start" x="617.5" y="-211.3" font-family="Times,serif" font-size="14.00"> putchar_rc = string_out(&quot;Errr, Wrong password!\n&quot;)</text>
</g>
<!-- Node0x20b3430&#45;&gt;Node0x209cae0 -->
<g id="edge8" class="edge"><title>Node0x20b3430&#45;&gt;Node0x209cae0</title>
<path fill="none" stroke="black" d="M769.78,-325.323C812.803,-320.181 845.798,-313.532 853.5,-305 868.551,-288.327 853.931,-265.893 837.296,-248.783"/>
<polygon fill="black" stroke="black" points="839.734,-246.271 830.125,-241.809 834.853,-251.29 839.734,-246.271"/>
<text text-anchor="middle" x="1106" y="-293.8" font-family="Times,serif" font-size="14.00">strcmp(BitCastExpr&lt;ptr&gt;(&amp;(str2)), BitCastExpr&lt;ptr&gt;(&amp;(str))) != 0</text>
</g>
<!-- Node0x20babd0 -->
<g id="node10" class="node"><title>Node0x20babd0</title>
<polygon fill="none" stroke="black" points="312.5,-97.5 312.5,-135.5 462.5,-135.5 462.5,-97.5 312.5,-97.5"/>
<text text-anchor="start" x="320.5" y="-120.3" font-family="Times,serif" font-size="14.00">0x8048a1f:</text>
<text text-anchor="start" x="320.5" y="-105.3" font-family="Times,serif" font-size="14.00"> return putchar_rc</text>
</g>
<!-- Node0x20b9b10&#45;&gt;Node0x20babd0 -->
<g id="edge9" class="edge"><title>Node0x20b9b10&#45;&gt;Node0x20babd0</title>
<path fill="none" stroke="black" d="M387.5,-173.458C387.5,-163.952 387.5,-154.27 387.5,-145.69"/>
<polygon fill="black" stroke="black" points="391,-145.509 387.5,-135.509 384,-145.509 391,-145.509"/>
</g>
<!-- Node0x209cae0&#45;&gt;Node0x20babd0 -->
<g id="edge10" class="edge"><title>Node0x209cae0&#45;&gt;Node0x20babd0</title>
<path fill="none" stroke="black" d="M734.342,-203.385C660.791,-185.172 547.572,-157.137 470.657,-138.091"/>
<polygon fill="black" stroke="black" points="471.072,-134.588 460.523,-135.582 469.389,-141.383 471.072,-134.588"/>
</g>
<!-- Node0x20babd0&#45;&gt;Node0x208f6f0 -->
<g id="edge11" class="edge"><title>Node0x20babd0&#45;&gt;Node0x208f6f0</title>
<path fill="none" stroke="black" d="M352.152,-97.4551C330.441,-86.3719 302.695,-72.208 280.81,-61.0356"/>
<polygon fill="black" stroke="black" points="282.321,-57.8778 271.823,-56.4483 279.139,-64.1124 282.321,-57.8778"/>
</g>
</g>
</svg>
