<?xml version="1.0" encoding="UTF-8" standalone="no"?>
<!DOCTYPE svg PUBLIC "-//W3C//DTD SVG 1.1//EN"
 "http://www.w3.org/Graphics/SVG/1.1/DTD/svg11.dtd">
<!-- Generated by graphviz version 2.38.0 (20140413.2041)
 -->
<!-- Title: Control&#45;flow graph for function &#39;read_file(*file_path)&#39;. Pages: 1 -->
<svg width="784pt" height="864pt"
 viewBox="0.00 0.00 784.00 864.00" xmlns="http://www.w3.org/2000/svg" xmlns:xlink="http://www.w3.org/1999/xlink">
<g id="graph0" class="graph" transform="scale(1 1) rotate(0) translate(4 860)">
<title>Control&#45;flow graph for function &#39;read_file(*file_path)&#39;.</title>
<polygon fill="white" stroke="none" points="-4,4 -4,-860 780,-860 780,4 -4,4"/>
<text text-anchor="middle" x="388" y="-7.8" font-family="Times,serif" font-size="14.00">Control&#45;flow graph for function &#39;read_file(*file_path)&#39;.</text>
<!-- Node0x2032930 -->
<g id="node1" class="node"><title>Node0x2032930</title>
<polygon fill="none" stroke="black" points="152.5,-817.5 152.5,-855.5 235.5,-855.5 235.5,-817.5 152.5,-817.5"/>
<text text-anchor="start" x="160.5" y="-840.3" font-family="Times,serif" font-size="14.00">entry:</text>
<text text-anchor="start" x="160.5" y="-825.3" font-family="Times,serif" font-size="14.00"> file_path</text>
</g>
<!-- Node0x202dbf0 -->
<g id="node2" class="node"><title>Node0x202dbf0</title>
<polygon fill="none" stroke="black" points="21.5,-743.5 21.5,-779.5 366.5,-779.5 366.5,-743.5 21.5,-743.5"/>
<text text-anchor="start" x="29.5" y="-757.8" font-family="Times,serif" font-size="14.00">file = fopen(BitCastExpr&lt;ptr&gt;(file_path), &quot;r&quot;)</text>
</g>
<!-- Node0x2032930&#45;&gt;Node0x202dbf0 -->
<g id="edge1" class="edge"><title>Node0x2032930&#45;&gt;Node0x202dbf0</title>
<path fill="none" stroke="black" d="M194,-817.455C194,-809.201 194,-799.238 194,-790.074"/>
<polygon fill="black" stroke="black" points="197.5,-789.835 194,-779.835 190.5,-789.835 197.5,-789.835"/>
</g>
<!-- Node0x2031f40 -->
<g id="node3" class="node"><title>Node0x2031f40</title>
<polygon fill="none" stroke="black" points="122,-669.5 122,-705.5 266,-705.5 266,-669.5 122,-669.5"/>
<text text-anchor="start" x="130" y="-683.8" font-family="Times,serif" font-size="14.00">if (file == NULL):</text>
</g>
<!-- Node0x202dbf0&#45;&gt;Node0x2031f40 -->
<g id="edge2" class="edge"><title>Node0x202dbf0&#45;&gt;Node0x2031f40</title>
<path fill="none" stroke="black" d="M194,-743.437C194,-735.307 194,-725.376 194,-716.205"/>
<polygon fill="black" stroke="black" points="197.5,-715.941 194,-705.941 190.5,-715.941 197.5,-715.941"/>
</g>
<!-- Node0x20b09c0 -->
<g id="node4" class="node"><title>Node0x20b09c0</title>
<polygon fill="none" stroke="black" points="23.5,-579.5 23.5,-617.5 214.5,-617.5 214.5,-579.5 23.5,-579.5"/>
<text text-anchor="start" x="31.5" y="-602.3" font-family="Times,serif" font-size="14.00">0x8048ba7:</text>
<text text-anchor="start" x="31.5" y="-587.3" font-family="Times,serif" font-size="14.00"> err(1, &quot;read_file fopen&quot;)</text>
</g>
<!-- Node0x2031f40&#45;&gt;Node0x20b09c0 -->
<g id="edge3" class="edge"><title>Node0x2031f40&#45;&gt;Node0x20b09c0</title>
<path fill="none" stroke="black" d="M159.195,-669.39C151.427,-664.316 143.788,-658.163 138,-651 132.464,-644.149 128.449,-635.533 125.578,-627.318"/>
<polygon fill="black" stroke="black" points="128.891,-626.182 122.619,-617.643 122.197,-628.23 128.891,-626.182"/>
<text text-anchor="middle" x="187.5" y="-639.8" font-family="Times,serif" font-size="14.00">file == NULL</text>
</g>
<!-- Node0x20372f0 -->
<g id="node5" class="node"><title>Node0x20372f0</title>
<polygon fill="none" stroke="black" points="161.5,-503.5 161.5,-541.5 262.5,-541.5 262.5,-503.5 161.5,-503.5"/>
<text text-anchor="start" x="169.5" y="-526.3" font-family="Times,serif" font-size="14.00">0x8048bbb:</text>
<text text-anchor="start" x="169.5" y="-511.3" font-family="Times,serif" font-size="14.00"> str</text>
</g>
<!-- Node0x2031f40&#45;&gt;Node0x20372f0 -->
<g id="edge4" class="edge"><title>Node0x2031f40&#45;&gt;Node0x20372f0</title>
<path fill="none" stroke="black" d="M222.346,-669.168C228.262,-664.1 233.699,-658.006 237,-651 252.242,-618.651 239.019,-577.473 226.741,-550.806"/>
<polygon fill="black" stroke="black" points="229.828,-549.15 222.315,-541.681 223.53,-552.206 229.828,-549.15"/>
<text text-anchor="middle" x="290.5" y="-594.8" font-family="Times,serif" font-size="14.00">file != NULL</text>
</g>
<!-- Node0x20b09c0&#45;&gt;Node0x20372f0 -->
<g id="edge5" class="edge"><title>Node0x20b09c0&#45;&gt;Node0x20372f0</title>
<path fill="none" stroke="black" d="M141.989,-579.208C153.814,-569.799 168.392,-558.199 181.179,-548.025"/>
<polygon fill="black" stroke="black" points="183.63,-550.547 189.276,-541.582 179.271,-545.069 183.63,-550.547"/>
</g>
<!-- Node0x2032ca0 -->
<g id="node6" class="node"><title>Node0x2032ca0</title>
<polygon fill="none" stroke="black" points="0,-429.5 0,-465.5 424,-465.5 424,-429.5 0,-429.5"/>
<text text-anchor="start" x="8" y="-443.8" font-family="Times,serif" font-size="14.00">if (fgets(BitCastExpr&lt;ptr&gt;(&amp;(str)), 254, file) == NULL):</text>
</g>
<!-- Node0x20372f0&#45;&gt;Node0x2032ca0 -->
<g id="edge6" class="edge"><title>Node0x20372f0&#45;&gt;Node0x2032ca0</title>
<path fill="none" stroke="black" d="M212,-503.455C212,-495.201 212,-485.238 212,-476.074"/>
<polygon fill="black" stroke="black" points="215.5,-475.835 212,-465.835 208.5,-475.835 215.5,-475.835"/>
</g>
<!-- Node0x20ba000 -->
<g id="node7" class="node"><title>Node0x20ba000</title>
<polygon fill="none" stroke="black" points="53.5,-339.5 53.5,-377.5 240.5,-377.5 240.5,-339.5 53.5,-339.5"/>
<text text-anchor="start" x="61.5" y="-362.3" font-family="Times,serif" font-size="14.00">0x8048bdc:</text>
<text text-anchor="start" x="61.5" y="-347.3" font-family="Times,serif" font-size="14.00"> err(1, &quot;read_file fgets&quot;)</text>
</g>
<!-- Node0x2032ca0&#45;&gt;Node0x20ba000 -->
<g id="edge7" class="edge"><title>Node0x2032ca0&#45;&gt;Node0x20ba000</title>
<path fill="none" stroke="black" d="M53.1601,-429.455C36.0047,-424.729 22.4284,-418.697 16,-411 0.165972,-392.04 17.2601,-380.024 43.7475,-372.424"/>
<polygon fill="black" stroke="black" points="44.661,-375.803 53.4695,-369.915 42.9122,-369.025 44.661,-375.803"/>
<text text-anchor="middle" x="205.5" y="-399.8" font-family="Times,serif" font-size="14.00">fgets(BitCastExpr&lt;ptr&gt;(&amp;(str)), 254, file) == NULL</text>
</g>
<!-- Node0x20b8270 -->
<g id="node8" class="node"><title>Node0x20b8270</title>
<polygon fill="none" stroke="black" points="251.5,-263.5 251.5,-301.5 422.5,-301.5 422.5,-263.5 251.5,-263.5"/>
<text text-anchor="start" x="259.5" y="-286.3" font-family="Times,serif" font-size="14.00">0x8048bf0:</text>
<text text-anchor="start" x="259.5" y="-271.3" font-family="Times,serif" font-size="14.00"> if (fclose(file) == &#45;1):</text>
</g>
<!-- Node0x2032ca0&#45;&gt;Node0x20b8270 -->
<g id="edge8" class="edge"><title>Node0x2032ca0&#45;&gt;Node0x20b8270</title>
<path fill="none" stroke="black" d="M357.426,-429.458C374.818,-424.715 388.669,-418.678 395,-411 420.456,-380.131 389.233,-336.276 363.671,-308.877"/>
<polygon fill="black" stroke="black" points="366.125,-306.379 356.664,-301.61 361.086,-311.238 366.125,-306.379"/>
<text text-anchor="middle" x="589.5" y="-354.8" font-family="Times,serif" font-size="14.00">fgets(BitCastExpr&lt;ptr&gt;(&amp;(str)), 254, file) != NULL</text>
</g>
<!-- Node0x20ba000&#45;&gt;Node0x20b8270 -->
<g id="edge9" class="edge"><title>Node0x20ba000&#45;&gt;Node0x20b8270</title>
<path fill="none" stroke="black" d="M193.479,-339.398C219.915,-329.101 253.203,-316.137 281.064,-305.286"/>
<polygon fill="black" stroke="black" points="282.624,-308.434 290.672,-301.544 280.083,-301.912 282.624,-308.434"/>
</g>
<!-- Node0x258ac10 -->
<g id="node9" class="node"><title>Node0x258ac10</title>
<polygon fill="none" stroke="black" points="174.5,-173.5 174.5,-211.5 367.5,-211.5 367.5,-173.5 174.5,-173.5"/>
<text text-anchor="start" x="182.5" y="-196.3" font-family="Times,serif" font-size="14.00">0x8048c00:</text>
<text text-anchor="start" x="182.5" y="-181.3" font-family="Times,serif" font-size="14.00"> err(1, &quot;read_file fclose&quot;)</text>
</g>
<!-- Node0x20b8270&#45;&gt;Node0x258ac10 -->
<g id="edge10" class="edge"><title>Node0x20b8270&#45;&gt;Node0x258ac10</title>
<path fill="none" stroke="black" d="M288.442,-263.448C281.081,-258.583 274.465,-252.516 270,-245 265.935,-238.157 264.818,-229.848 265.09,-221.918"/>
<polygon fill="black" stroke="black" points="268.582,-222.173 266.116,-211.869 261.618,-221.462 268.582,-222.173"/>
<text text-anchor="middle" x="330.5" y="-233.8" font-family="Times,serif" font-size="14.00">fclose(file) == &#45;1</text>
</g>
<!-- Node0x20b3970 -->
<g id="node10" class="node"><title>Node0x20b3970</title>
<polygon fill="none" stroke="black" points="106.5,-97.5 106.5,-135.5 623.5,-135.5 623.5,-97.5 106.5,-97.5"/>
<text text-anchor="start" x="114.5" y="-120.3" font-family="Times,serif" font-size="14.00">0x8048c14:</text>
<text text-anchor="start" x="114.5" y="-105.3" font-family="Times,serif" font-size="14.00"> return PtrToIntCastExpr&lt;int32&gt;(strdup(BitCastExpr&lt;ptr&gt;(&amp;(str))))</text>
</g>
<!-- Node0x20b8270&#45;&gt;Node0x20b3970 -->
<g id="edge11" class="edge"><title>Node0x20b8270&#45;&gt;Node0x20b3970</title>
<path fill="none" stroke="black" d="M374.392,-263.395C381.07,-258.398 387.125,-252.295 391,-245 407.798,-213.37 393.821,-172.02 380.742,-145.118"/>
<polygon fill="black" stroke="black" points="383.697,-143.21 376.023,-135.906 377.467,-146.402 383.697,-143.21"/>
<text text-anchor="middle" x="455.5" y="-188.8" font-family="Times,serif" font-size="14.00">fclose(file) != &#45;1</text>
</g>
<!-- Node0x258ac10&#45;&gt;Node0x20b3970 -->
<g id="edge12" class="edge"><title>Node0x258ac10&#45;&gt;Node0x20b3970</title>
<path fill="none" stroke="black" d="M294.236,-173.208C306.188,-163.799 320.923,-152.199 333.847,-142.025"/>
<polygon fill="black" stroke="black" points="336.339,-144.517 342.031,-135.582 332.009,-139.017 336.339,-144.517"/>
</g>
<!-- Node0x20321d0 -->
<g id="node11" class="node"><title>Node0x20321d0</title>
<polygon fill="none" stroke="black" points="338,-23.5 338,-59.5 392,-59.5 392,-23.5 338,-23.5"/>
<text text-anchor="start" x="346" y="-37.8" font-family="Times,serif" font-size="14.00">exit:</text>
</g>
<!-- Node0x20b3970&#45;&gt;Node0x20321d0 -->
<g id="edge13" class="edge"><title>Node0x20b3970&#45;&gt;Node0x20321d0</title>
<path fill="none" stroke="black" d="M365,-97.4551C365,-89.2008 365,-79.2377 365,-70.0742"/>
<polygon fill="black" stroke="black" points="368.5,-69.8347 365,-59.8347 361.5,-69.8347 368.5,-69.8347"/>
</g>
</g>
</svg>
