<?xml version="1.0" encoding="UTF-8" standalone="no"?>
<!DOCTYPE svg PUBLIC "-//W3C//DTD SVG 1.1//EN"
 "http://www.w3.org/Graphics/SVG/1.1/DTD/svg11.dtd">
<!-- Generated by graphviz version 2.38.0 (20140413.2041)
 -->
<!-- Title: Control&#45;flow graph for function &#39;new_file(*file_path, str)&#39;. Pages: 1 -->
<svg width="696pt" height="877pt"
 viewBox="0.00 0.00 695.50 877.00" xmlns="http://www.w3.org/2000/svg" xmlns:xlink="http://www.w3.org/1999/xlink">
<g id="graph0" class="graph" transform="scale(1 1) rotate(0) translate(4 873)">
<title>Control&#45;flow graph for function &#39;new_file(*file_path, str)&#39;.</title>
<polygon fill="white" stroke="none" points="-4,4 -4,-873 691.5,-873 691.5,4 -4,4"/>
<text text-anchor="middle" x="343.75" y="-7.8" font-family="Times,serif" font-size="14.00">Control&#45;flow graph for function &#39;new_file(*file_path, str)&#39;.</text>
<!-- Node0x1bd7840 -->
<g id="node1" class="node"><title>Node0x1bd7840</title>
<polygon fill="none" stroke="black" points="138,-815.5 138,-868.5 221,-868.5 221,-815.5 138,-815.5"/>
<text text-anchor="start" x="146" y="-853.3" font-family="Times,serif" font-size="14.00">entry:</text>
<text text-anchor="start" x="146" y="-838.3" font-family="Times,serif" font-size="14.00"> file_path</text>
<text text-anchor="start" x="146" y="-823.3" font-family="Times,serif" font-size="14.00"> str</text>
</g>
<!-- Node0x1bd77a0 -->
<g id="node2" class="node"><title>Node0x1bd77a0</title>
<polygon fill="none" stroke="black" points="0,-741.5 0,-777.5 359,-777.5 359,-741.5 0,-741.5"/>
<text text-anchor="start" x="8" y="-755.8" font-family="Times,serif" font-size="14.00">file = fopen(BitCastExpr&lt;ptr&gt;(file_path), &quot;wx&quot;)</text>
</g>
<!-- Node0x1bd7840&#45;&gt;Node0x1bd77a0 -->
<g id="edge1" class="edge"><title>Node0x1bd7840&#45;&gt;Node0x1bd77a0</title>
<path fill="none" stroke="black" d="M179.5,-815.086C179.5,-806.46 179.5,-796.822 179.5,-788.075"/>
<polygon fill="black" stroke="black" points="183,-787.973 179.5,-777.974 176,-787.974 183,-787.973"/>
</g>
<!-- Node0x1ba0670 -->
<g id="node3" class="node"><title>Node0x1ba0670</title>
<polygon fill="none" stroke="black" points="107.5,-667.5 107.5,-703.5 251.5,-703.5 251.5,-667.5 107.5,-667.5"/>
<text text-anchor="start" x="115.5" y="-681.8" font-family="Times,serif" font-size="14.00">if (file == NULL):</text>
</g>
<!-- Node0x1bd77a0&#45;&gt;Node0x1ba0670 -->
<g id="edge2" class="edge"><title>Node0x1bd77a0&#45;&gt;Node0x1ba0670</title>
<path fill="none" stroke="black" d="M179.5,-741.437C179.5,-733.307 179.5,-723.376 179.5,-714.205"/>
<polygon fill="black" stroke="black" points="183,-713.941 179.5,-703.941 176,-713.941 183,-713.941"/>
</g>
<!-- Node0x202c2f0 -->
<g id="node4" class="node"><title>Node0x202c2f0</title>
<polygon fill="none" stroke="black" points="12.5,-577.5 12.5,-615.5 200.5,-615.5 200.5,-577.5 12.5,-577.5"/>
<text text-anchor="start" x="20.5" y="-600.3" font-family="Times,serif" font-size="14.00">0x8048b1d:</text>
<text text-anchor="start" x="20.5" y="-585.3" font-family="Times,serif" font-size="14.00"> err(1, &quot;new_file fopen&quot;)</text>
</g>
<!-- Node0x1ba0670&#45;&gt;Node0x202c2f0 -->
<g id="edge3" class="edge"><title>Node0x1ba0670&#45;&gt;Node0x202c2f0</title>
<path fill="none" stroke="black" d="M144.227,-667.34C136.566,-662.297 129.092,-656.171 123.5,-649 118.149,-642.138 114.446,-633.518 111.898,-625.304"/>
<polygon fill="black" stroke="black" points="115.279,-624.399 109.331,-615.632 108.513,-626.195 115.279,-624.399"/>
<text text-anchor="middle" x="173" y="-637.8" font-family="Times,serif" font-size="14.00">file == NULL</text>
</g>
<!-- Node0x1b310f0 -->
<g id="node5" class="node"><title>Node0x1b310f0</title>
<polygon fill="none" stroke="black" points="8,-501.5 8,-539.5 387,-539.5 387,-501.5 8,-501.5"/>
<text text-anchor="start" x="16" y="-524.3" font-family="Times,serif" font-size="14.00">0x8048b31:</text>
<text text-anchor="start" x="16" y="-509.3" font-family="Times,serif" font-size="14.00"> if (fputs(IntToPtrCastExpr&lt;ptr&gt;(str), file) == &#45;1):</text>
</g>
<!-- Node0x1ba0670&#45;&gt;Node0x1b310f0 -->
<g id="edge4" class="edge"><title>Node0x1ba0670&#45;&gt;Node0x1b310f0</title>
<path fill="none" stroke="black" d="M207.846,-667.168C213.762,-662.1 219.199,-656.006 222.5,-649 237.742,-616.651 224.519,-575.473 212.241,-548.806"/>
<polygon fill="black" stroke="black" points="215.328,-547.15 207.815,-539.681 209.03,-550.206 215.328,-547.15"/>
<text text-anchor="middle" x="276" y="-592.8" font-family="Times,serif" font-size="14.00">file != NULL</text>
</g>
<!-- Node0x202c2f0&#45;&gt;Node0x1b310f0 -->
<g id="edge5" class="edge"><title>Node0x202c2f0&#45;&gt;Node0x1b310f0</title>
<path fill="none" stroke="black" d="M128.994,-577.208C140.565,-567.799 154.83,-556.199 167.341,-546.025"/>
<polygon fill="black" stroke="black" points="169.714,-548.606 175.264,-539.582 165.298,-543.175 169.714,-548.606"/>
</g>
<!-- Node0x202e120 -->
<g id="node6" class="node"><title>Node0x202e120</title>
<polygon fill="none" stroke="black" points="41,-411.5 41,-449.5 226,-449.5 226,-411.5 41,-411.5"/>
<text text-anchor="start" x="49" y="-434.3" font-family="Times,serif" font-size="14.00">0x8048b48:</text>
<text text-anchor="start" x="49" y="-419.3" font-family="Times,serif" font-size="14.00"> err(1, &quot;new_file fputs&quot;)</text>
</g>
<!-- Node0x1b310f0&#45;&gt;Node0x202e120 -->
<g id="edge6" class="edge"><title>Node0x1b310f0&#45;&gt;Node0x202e120</title>
<path fill="none" stroke="black" d="M63.5294,-501.447C46.3525,-496.609 32.61,-490.552 26.5,-483 16.6606,-470.839 22.0544,-461.362 34.5156,-454.047"/>
<polygon fill="black" stroke="black" points="36.2175,-457.11 43.6358,-449.546 33.1195,-450.833 36.2175,-457.11"/>
<text text-anchor="middle" x="191" y="-471.8" font-family="Times,serif" font-size="14.00">fputs(IntToPtrCastExpr&lt;ptr&gt;(str), file) == &#45;1</text>
</g>
<!-- Node0x20303a0 -->
<g id="node7" class="node"><title>Node0x20303a0</title>
<polygon fill="none" stroke="black" points="227.5,-337.5 227.5,-373.5 381.5,-373.5 381.5,-337.5 227.5,-337.5"/>
<text text-anchor="start" x="235.5" y="-351.8" font-family="Times,serif" font-size="14.00">result = fclose(file)</text>
</g>
<!-- Node0x1b310f0&#45;&gt;Node0x20303a0 -->
<g id="edge7" class="edge"><title>Node0x1b310f0&#45;&gt;Node0x20303a0</title>
<path fill="none" stroke="black" d="M318.339,-501.479C335.601,-496.579 349.542,-490.492 355.5,-483 379.916,-452.301 351.381,-408.366 328.198,-381.177"/>
<polygon fill="black" stroke="black" points="330.788,-378.823 321.545,-373.644 325.541,-383.456 330.788,-378.823"/>
<text text-anchor="middle" x="526" y="-426.8" font-family="Times,serif" font-size="14.00">fputs(IntToPtrCastExpr&lt;ptr&gt;(str), file) != &#45;1</text>
</g>
<!-- Node0x202e120&#45;&gt;Node0x20303a0 -->
<g id="edge8" class="edge"><title>Node0x202e120&#45;&gt;Node0x20303a0</title>
<path fill="none" stroke="black" d="M175.77,-411.455C199.799,-401.197 230.011,-388.3 255.126,-377.578"/>
<polygon fill="black" stroke="black" points="256.656,-380.73 264.479,-373.585 253.908,-374.292 256.656,-380.73"/>
</g>
<!-- Node0x2030110 -->
<g id="node8" class="node"><title>Node0x2030110</title>
<polygon fill="none" stroke="black" points="237.5,-263.5 237.5,-299.5 371.5,-299.5 371.5,-263.5 237.5,-263.5"/>
<text text-anchor="start" x="245.5" y="-277.8" font-family="Times,serif" font-size="14.00">if (result == &#45;1):</text>
</g>
<!-- Node0x20303a0&#45;&gt;Node0x2030110 -->
<g id="edge9" class="edge"><title>Node0x20303a0&#45;&gt;Node0x2030110</title>
<path fill="none" stroke="black" d="M304.5,-337.437C304.5,-329.307 304.5,-319.376 304.5,-310.205"/>
<polygon fill="black" stroke="black" points="308,-309.941 304.5,-299.941 301,-309.941 308,-309.941"/>
</g>
<!-- Node0x202db10 -->
<g id="node9" class="node"><title>Node0x202db10</title>
<polygon fill="none" stroke="black" points="131.5,-173.5 131.5,-211.5 321.5,-211.5 321.5,-173.5 131.5,-173.5"/>
<text text-anchor="start" x="139.5" y="-196.3" font-family="Times,serif" font-size="14.00">0x8048b6c:</text>
<text text-anchor="start" x="139.5" y="-181.3" font-family="Times,serif" font-size="14.00"> err(1, &quot;new_file fclose&quot;)</text>
</g>
<!-- Node0x2030110&#45;&gt;Node0x202db10 -->
<g id="edge10" class="edge"><title>Node0x2030110&#45;&gt;Node0x202db10</title>
<path fill="none" stroke="black" d="M275.675,-263.388C268.212,-258.102 260.576,-251.849 254.5,-245 248.219,-237.92 242.806,-229.188 238.46,-220.937"/>
<polygon fill="black" stroke="black" points="241.583,-219.357 234.016,-211.942 235.307,-222.458 241.583,-219.357"/>
<text text-anchor="middle" x="299" y="-233.8" font-family="Times,serif" font-size="14.00">result == &#45;1</text>
</g>
<!-- Node0x202c580 -->
<g id="node10" class="node"><title>Node0x202c580</title>
<polygon fill="none" stroke="black" points="262,-97.5 262,-135.5 375,-135.5 375,-97.5 262,-97.5"/>
<text text-anchor="start" x="270" y="-120.3" font-family="Times,serif" font-size="14.00">0x8048b80:</text>
<text text-anchor="start" x="270" y="-105.3" font-family="Times,serif" font-size="14.00"> return result</text>
</g>
<!-- Node0x2030110&#45;&gt;Node0x202c580 -->
<g id="edge11" class="edge"><title>Node0x2030110&#45;&gt;Node0x202c580</title>
<path fill="none" stroke="black" d="M329.448,-263.485C335.123,-258.275 340.391,-252.034 343.5,-245 357.956,-212.293 344.921,-171.2 332.899,-144.65"/>
<polygon fill="black" stroke="black" points="336.032,-143.088 328.569,-135.569 329.714,-146.101 336.032,-143.088"/>
<text text-anchor="middle" x="391" y="-188.8" font-family="Times,serif" font-size="14.00">result != &#45;1</text>
</g>
<!-- Node0x202db10&#45;&gt;Node0x202c580 -->
<g id="edge12" class="edge"><title>Node0x202db10&#45;&gt;Node0x202c580</title>
<path fill="none" stroke="black" d="M249.242,-173.208C260.94,-163.799 275.361,-152.199 288.01,-142.025"/>
<polygon fill="black" stroke="black" points="290.422,-144.577 296.02,-135.582 286.034,-139.122 290.422,-144.577"/>
</g>
<!-- Node0x1bb7b70 -->
<g id="node11" class="node"><title>Node0x1bb7b70</title>
<polygon fill="none" stroke="black" points="291.5,-23.5 291.5,-59.5 345.5,-59.5 345.5,-23.5 291.5,-23.5"/>
<text text-anchor="start" x="299.5" y="-37.8" font-family="Times,serif" font-size="14.00">exit:</text>
</g>
<!-- Node0x202c580&#45;&gt;Node0x1bb7b70 -->
<g id="edge13" class="edge"><title>Node0x202c580&#45;&gt;Node0x1bb7b70</title>
<path fill="none" stroke="black" d="M318.5,-97.4551C318.5,-89.2008 318.5,-79.2377 318.5,-70.0742"/>
<polygon fill="black" stroke="black" points="322,-69.8347 318.5,-59.8347 315,-69.8347 322,-69.8347"/>
</g>
</g>
</svg>
