<?xml version="1.0" encoding="UTF-8" standalone="no"?>
<!DOCTYPE svg PUBLIC "-//W3C//DTD SVG 1.1//EN"
 "http://www.w3.org/Graphics/SVG/1.1/DTD/svg11.dtd">
<!-- Generated by graphviz version 2.38.0 (20140413.2041)
 -->
<!-- Title: Control&#45;flow graph for function &#39;write_note()&#39;. Pages: 1 -->
<svg width="1044pt" height="610pt"
 viewBox="0.00 0.00 1043.50 610.00" xmlns="http://www.w3.org/2000/svg" xmlns:xlink="http://www.w3.org/1999/xlink">
<g id="graph0" class="graph" transform="scale(1 1) rotate(0) translate(4 606)">
<title>Control&#45;flow graph for function &#39;write_note()&#39;.</title>
<polygon fill="white" stroke="none" points="-4,4 -4,-606 1039.5,-606 1039.5,4 -4,4"/>
<text text-anchor="middle" x="517.75" y="-7.8" font-family="Times,serif" font-size="14.00">Control&#45;flow graph for function &#39;write_note()&#39;.</text>
<!-- Node0x1ad1840 -->
<g id="node1" class="node"><title>Node0x1ad1840</title>
<polygon fill="none" stroke="black" points="453,-565.5 453,-601.5 512,-601.5 512,-565.5 453,-565.5"/>
<text text-anchor="start" x="461" y="-579.8" font-family="Times,serif" font-size="14.00">entry:</text>
</g>
<!-- Node0x1a973d0 -->
<g id="node2" class="node"><title>Node0x1a973d0</title>
<polygon fill="none" stroke="black" points="267,-414.5 267,-527.5 698,-527.5 698,-414.5 267,-414.5"/>
<text text-anchor="start" x="275" y="-512.3" font-family="Times,serif" font-size="14.00">puts(&quot;Please send: note_id password content&quot;)</text>
<text text-anchor="start" x="275" y="-497.3" font-family="Times,serif" font-size="14.00"> puts(&quot;The note_id is an number. No extra whitespace !!&quot;)</text>
<text text-anchor="start" x="275" y="-482.3" font-family="Times,serif" font-size="14.00"> fflush(g2)</text>
<text text-anchor="start" x="275" y="-467.3" font-family="Times,serif" font-size="14.00"> v1</text>
<text text-anchor="start" x="275" y="-452.3" font-family="Times,serif" font-size="14.00"> v2</text>
<text text-anchor="start" x="275" y="-437.3" font-family="Times,serif" font-size="14.00"> v3</text>
<text text-anchor="start" x="275" y="-422.3" font-family="Times,serif" font-size="14.00"> result</text>
</g>
<!-- Node0x1ad1840&#45;&gt;Node0x1a973d0 -->
<g id="edge1" class="edge"><title>Node0x1ad1840&#45;&gt;Node0x1a973d0</title>
<path fill="none" stroke="black" d="M482.5,-565.234C482.5,-557.586 482.5,-548.056 482.5,-538.033"/>
<polygon fill="black" stroke="black" points="486,-537.897 482.5,-527.897 479,-537.897 486,-537.897"/>
</g>
<!-- Node0x1bc2e90 -->
<g id="node3" class="node"><title>Node0x1bc2e90</title>
<polygon fill="none" stroke="black" points="278.5,-338.5 278.5,-376.5 686.5,-376.5 686.5,-338.5 278.5,-338.5"/>
<text text-anchor="start" x="286.5" y="-361.3" font-family="Times,serif" font-size="14.00">if (scanf(&quot;%u %50s %50s&quot;, &amp;(v2), &amp;(v3), &amp;(v1)) == 3):</text>
<text text-anchor="start" x="286.5" y="-346.3" font-family="Times,serif" font-size="14.00"> else:</text>
</g>
<!-- Node0x1a973d0&#45;&gt;Node0x1bc2e90 -->
<g id="edge2" class="edge"><title>Node0x1a973d0&#45;&gt;Node0x1bc2e90</title>
<path fill="none" stroke="black" d="M482.5,-414.25C482.5,-404.862 482.5,-395.474 482.5,-387.151"/>
<polygon fill="black" stroke="black" points="486,-386.912 482.5,-376.912 479,-386.912 486,-386.912"/>
</g>
<!-- Node0x20b8410 -->
<g id="node4" class="node"><title>Node0x20b8410</title>
<polygon fill="none" stroke="black" points="0,-173.5 0,-286.5 527,-286.5 527,-173.5 0,-173.5"/>
<text text-anchor="start" x="8" y="-271.3" font-family="Times,serif" font-size="14.00">0x8048a86:</text>
<text text-anchor="start" x="8" y="-256.3" font-family="Times,serif" font-size="14.00"> str</text>
<text text-anchor="start" x="8" y="-241.3" font-family="Times,serif" font-size="14.00"> sprintf(BitCastExpr&lt;ptr&gt;(&amp;(str)), &quot;%u&quot;, v2)</text>
<text text-anchor="start" x="8" y="-226.3" font-family="Times,serif" font-size="14.00"> new_file(BitCastExpr&lt;ptr&gt;(&amp;(str)), PtrToIntCastExpr&lt;int32&gt;(&amp;(v1)))</text>
<text text-anchor="start" x="8" y="-211.3" font-family="Times,serif" font-size="14.00"> sprintf(BitCastExpr&lt;ptr&gt;(&amp;(str)), &quot;%u_password&quot;, v2)</text>
<text text-anchor="start" x="8" y="-196.3" font-family="Times,serif" font-size="14.00"> new_file(BitCastExpr&lt;ptr&gt;(&amp;(str)), PtrToIntCastExpr&lt;int32&gt;(&amp;(v3)))</text>
<text text-anchor="start" x="8" y="-181.3" font-family="Times,serif" font-size="14.00"> result = string_out(&quot;Your note is (hopefully) safe with us! Bye!\n&quot;)</text>
</g>
<!-- Node0x1bc2e90&#45;&gt;Node0x20b8410 -->
<g id="edge3" class="edge"><title>Node0x1bc2e90&#45;&gt;Node0x20b8410</title>
<path fill="none" stroke="black" d="M353.169,-338.4C331.232,-333.391 312.601,-327.282 303.5,-320 295.38,-313.504 288.855,-305.006 283.626,-295.84"/>
<polygon fill="black" stroke="black" points="286.701,-294.167 279,-286.891 280.483,-297.381 286.701,-294.167"/>
<text text-anchor="middle" x="485" y="-308.8" font-family="Times,serif" font-size="14.00">scanf(&quot;%u %50s %50s&quot;, &amp;(v2), &amp;(v3), &amp;(v1)) == 3</text>
</g>
<!-- Node0x1b1d430 -->
<g id="node5" class="node"><title>Node0x1b1d430</title>
<polygon fill="none" stroke="black" points="545,-211 545,-249 860,-249 860,-211 545,-211"/>
<text text-anchor="start" x="553" y="-233.8" font-family="Times,serif" font-size="14.00">0x8048a78:</text>
<text text-anchor="start" x="553" y="-218.8" font-family="Times,serif" font-size="14.00"> result = string_out(&quot;Can&#39;t parse this!\n&quot;)</text>
</g>
<!-- Node0x1bc2e90&#45;&gt;Node0x1b1d430 -->
<g id="edge4" class="edge"><title>Node0x1bc2e90&#45;&gt;Node0x1b1d430</title>
<path fill="none" stroke="black" d="M617.934,-338.411C639.472,-333.458 657.592,-327.369 666.5,-320 684.68,-304.961 693.762,-279.341 698.249,-259.439"/>
<polygon fill="black" stroke="black" points="701.736,-259.848 700.249,-249.358 694.87,-258.486 701.736,-259.848"/>
<text text-anchor="middle" x="857" y="-308.8" font-family="Times,serif" font-size="14.00">scanf(&quot;%u %50s %50s&quot;, &amp;(v2), &amp;(v3), &amp;(v1)) != 3</text>
</g>
<!-- Node0x1ad18d0 -->
<g id="node6" class="node"><title>Node0x1ad18d0</title>
<polygon fill="none" stroke="black" points="478,-97.5 478,-135.5 591,-135.5 591,-97.5 478,-97.5"/>
<text text-anchor="start" x="486" y="-120.3" font-family="Times,serif" font-size="14.00">0x8048af9:</text>
<text text-anchor="start" x="486" y="-105.3" font-family="Times,serif" font-size="14.00"> return result</text>
</g>
<!-- Node0x20b8410&#45;&gt;Node0x1ad18d0 -->
<g id="edge5" class="edge"><title>Node0x20b8410&#45;&gt;Node0x1ad18d0</title>
<path fill="none" stroke="black" d="M398.603,-173.413C427.851,-161.379 457.124,-149.335 480.971,-139.524"/>
<polygon fill="black" stroke="black" points="482.588,-142.643 490.504,-135.602 479.925,-136.17 482.588,-142.643"/>
</g>
<!-- Node0x1b1d430&#45;&gt;Node0x1ad18d0 -->
<g id="edge6" class="edge"><title>Node0x1b1d430&#45;&gt;Node0x1ad18d0</title>
<path fill="none" stroke="black" d="M675.134,-210.837C646.578,-191.885 601.677,-162.085 570.316,-141.271"/>
<polygon fill="black" stroke="black" points="572.122,-138.268 561.854,-135.655 568.251,-144.101 572.122,-138.268"/>
</g>
<!-- Node0x20b5840 -->
<g id="node7" class="node"><title>Node0x20b5840</title>
<polygon fill="none" stroke="black" points="507.5,-23.5 507.5,-59.5 561.5,-59.5 561.5,-23.5 507.5,-23.5"/>
<text text-anchor="start" x="515.5" y="-37.8" font-family="Times,serif" font-size="14.00">exit:</text>
</g>
<!-- Node0x1ad18d0&#45;&gt;Node0x20b5840 -->
<g id="edge7" class="edge"><title>Node0x1ad18d0&#45;&gt;Node0x20b5840</title>
<path fill="none" stroke="black" d="M534.5,-97.4551C534.5,-89.2008 534.5,-79.2377 534.5,-70.0742"/>
<polygon fill="black" stroke="black" points="538,-69.8347 534.5,-59.8347 531,-69.8347 538,-69.8347"/>
</g>
</g>
</svg>
